<?xml version="1.0" encoding="UTF-8" standalone="no"?>
<!-- Created with Inkscape (http://www.inkscape.org/) -->

<svg
   width="4.4476967in"
   height="5.5714936in"
   viewBox="0 0 17.790787 22.285975"
   version="1.1"
   id="svg658"
   xml:space="preserve"
   inkscape:version="1.2.2 (b0a8486541, 2022-12-01)"
   sodipodi:docname="alice.svg"
   inkscape:export-filename="alice.png"
   inkscape:export-xdpi="96"
   inkscape:export-ydpi="96"
   xmlns:inkscape="http://www.inkscape.org/namespaces/inkscape"
   xmlns:sodipodi="http://sodipodi.sourceforge.net/DTD/sodipodi-0.dtd"
   xmlns="http://www.w3.org/2000/svg"
   xmlns:svg="http://www.w3.org/2000/svg"><sodipodi:namedview
     id="namedview660"
     pagecolor="#ffffff"
     bordercolor="#000000"
     borderopacity="0.25"
     inkscape:showpageshadow="2"
     inkscape:pageopacity="0.0"
     inkscape:pagecheckerboard="0"
     inkscape:deskcolor="#d1d1d1"
     inkscape:document-units="in"
     showgrid="true"
     inkscape:zoom="1.4142136"
     inkscape:cx="565.33187"
     inkscape:cy="514.77373"
     inkscape:window-width="3790"
     inkscape:window-height="2111"
     inkscape:window-x="50"
     inkscape:window-y="0"
     inkscape:window-maximized="1"
     inkscape:current-layer="layer1"><inkscape:grid
       type="xygrid"
       id="grid779"
       units="in"
       spacingx="0.2"
       originx="-1.9279638"
       originy="-5.7714572"
       spacingy="0.2" /></sodipodi:namedview><defs
     id="defs655"><inkscape:path-effect
       effect="fill_between_many"
       method="originald"
       linkedpaths="#path11426,0,1"
       id="path-effect11492"
       is_visible="true"
       lpeversion="0"
       join="true"
       close="true"
       autoreverse="true" /></defs><g
     inkscape:label="Layer 1"
     inkscape:groupmode="layer"
     id="layer1"
     transform="translate(-1.9279638,-5.7714572)"><path
       style="fill:#ffffff;stroke-width:1"
       d="m 13.786261,26.664316 c -0.334386,-0.16025 -0.669642,-0.447467 -0.848197,-0.726658 -0.199947,-0.312641 -0.08983,-0.268072 0.288337,0.116705 0.287385,0.292406 0.425291,0.398225 0.663912,0.509437 0.274617,0.127989 0.344277,0.19605 0.237187,0.231746 -0.02187,0.0073 -0.175423,-0.05176 -0.341239,-0.13123 z"
       id="path11426"
       sodipodi:nodetypes="cssscc"
       inkscape:label="sleeve" /><g
       id="g11656"><path
         style="fill:#f8c89e;stroke-width:1"
         d="m 13.979756,27.954166 c -0.0029,-0.01146 -0.009,-0.03489 -0.01365,-0.05208 -0.0749,-0.277368 -0.07232,-0.351243 0.01438,-0.41197 0.145648,-0.102015 0.06196,-0.140113 -0.307768,-0.140113 -0.191947,0 -0.398649,-0.01888 -0.459338,-0.04195 l -0.110342,-0.04195 0.10652,-0.126592 c 0.05859,-0.06963 0.128737,-0.200747 0.155892,-0.291381 0.02715,-0.09063 0.0564,-0.164789 0.06499,-0.164789 0.0086,0 0.104062,0.04476 0.212155,0.09947 0.108092,0.05471 0.278672,0.124039 0.379067,0.154062 0.173623,0.05192 0.186399,0.04982 0.261643,-0.0431 0.06979,-0.08619 0.0919,-0.09186 0.187738,-0.0482 0.06411,0.02921 0.179847,0.03882 0.282412,0.02344 0.226824,-0.03402 0.307437,0.04401 0.224397,0.217197 -0.0853,0.177906 -0.222013,0.229133 -0.530419,0.198755 l -0.266693,-0.02627 0.02549,0.215184 c 0.01402,0.11835 0.05434,0.273026 0.08961,0.343723 0.03527,0.0707 0.06413,0.135035 0.06413,0.142972 0,0.02299 -0.374436,0.01669 -0.380209,-0.0064 z"
         id="path11414" /><path
         style="fill:#f8c89e;stroke-width:1"
         d="m 13.553676,27.860416 c -0.01377,-0.06302 -0.03744,-0.158265 -0.0526,-0.211653 -0.02477,-0.08723 -0.01552,-0.09568 0.09126,-0.08333 0.09342,0.0108 0.124727,0.04047 0.146407,0.138737 0.01517,0.06875 0.04128,0.157813 0.05802,0.197917 0.02503,0.05995 0.0083,0.07292 -0.0938,0.07292 -0.101697,0 -0.128794,-0.0208 -0.149288,-0.114584 z"
         id="path11412" /><path
         style="fill:#f8c89e;stroke-width:1"
         d="m 12.451635,27.732908 c -0.09988,-0.483577 -0.04904,-0.95603 0.148845,-1.383123 0.157528,-0.339993 0.145822,-0.338555 0.419752,-0.05157 l 0.24751,0.259307 -0.06194,0.211289 c -0.04845,0.165271 -0.09966,0.238615 -0.235139,0.336756 -0.09526,0.06901 -0.173201,0.146827 -0.173201,0.172935 0,0.05067 0.112255,0.116827 0.364583,0.214868 0.117528,0.04566 0.156314,0.08447 0.156507,0.156586 1.25e-4,0.05273 0.02715,0.147439 0.06003,0.210459 0.05825,0.111663 0.05686,0.114584 -0.05439,0.114584 -0.09106,0 -0.124104,-0.0275 -0.163312,-0.135933 -0.06773,-0.187315 -0.274173,-0.427183 -0.335192,-0.389471 -0.07116,0.04398 -0.06411,0.06695 0.09438,0.307604 l 0.143438,0.2178 h -0.280935 -0.280935 z"
         id="path11303" /></g><path
       style="fill:#ed6ab6;stroke-width:1"
       d="m 8.995381,16.736196 c -0.05867,-0.01063 -0.09375,-0.04685 -0.09375,-0.09679 0,-0.07253 0.02245,-0.07745 0.246489,-0.05403 0.207457,0.02168 0.269266,0.01169 0.390334,-0.06314 0.07912,-0.0489 0.203678,-0.0889 0.276804,-0.0889 0.183957,0 0.125975,0.06635 -0.08786,0.100544 -0.09685,0.01549 -0.233199,0.06242 -0.303007,0.104287 -0.146944,0.08814 -0.295853,0.122166 -0.429008,0.09803 z"
       id="path11506"
       inkscape:label="lip" /><path
       style="fill:#ed6ab6;stroke-width:1"
       d="m 9.284153,17.652287 c -0.238298,-0.0097 -0.341635,-0.02911 -0.330618,-0.06216 0.03008,-0.09023 0.238501,-0.11098 0.460918,-0.04588 0.11899,0.03483 0.234158,0.08037 0.255928,0.101206 0.025,0.02393 0.025,0.03476 0,0.0294 -0.02177,-0.0047 -0.195573,-0.01482 -0.386228,-0.02257 z"
       id="path11504"
       inkscape:label="lip" /><path
       style="display:inline;fill:#601e00;stroke-width:1"
       d="m 15.09031,19.305565 c -0.297042,-0.04966 -0.541353,-0.151728 -0.756774,-0.316164 l -0.187799,-0.14335 -0.193202,0.127972 c -0.548377,0.36323 -1.50355,0.426492 -2.13832,0.141625 -0.425895,-0.191131 -0.691602,-0.572334 -0.733675,-1.052589 -0.02543,-0.290214 0.08939,-0.622086 0.300591,-0.868822 0.170227,-0.198872 0.17449,-0.228161 0.05718,-0.392906 -0.114765,-0.161172 -0.203347,-0.459816 -0.203347,-0.685557 0,-0.240668 0.140192,-0.601202 0.31525,-0.810733 0.07869,-0.09419 0.143083,-0.194674 0.143083,-0.223293 0,-0.02862 -0.0375,-0.161031 -0.08333,-0.294248 -0.09881,-0.287201 -0.104942,-0.643155 -0.01507,-0.875 0.03553,-0.09167 0.07397,-0.215748 0.08542,-0.275736 l 0.02082,-0.10907 -0.458748,-0.0189 c -0.409157,-0.01686 -0.487492,-0.03305 -0.724654,-0.149807 -0.261463,-0.128718 -0.269293,-0.129887 -0.468461,-0.06995 -0.306619,0.09228 -0.590456,0.07707 -0.854385,-0.04579 -0.180974,-0.08424 -0.262028,-0.100007 -0.395833,-0.077 -0.246827,0.04244 -0.46773,0.02595 -0.605301,-0.04519 -0.26261,-0.135801 -0.35731,-0.009 -0.104625,0.140076 0.08021,0.04732 0.145834,0.111833 0.145834,0.143354 0,0.03152 -0.04622,0.43059 -0.102723,0.886821 -0.309688,2.500821 -0.30516,3.251361 0.02283,3.783575 0.06917,0.112234 0.116404,0.228439 0.104971,0.258233 -0.03498,0.09117 -0.360772,0.160561 -0.733412,0.156214 -0.365911,-0.0043 -0.658518,-0.08134 -0.802102,-0.211287 -0.06291,-0.05693 -0.09774,-0.0612 -0.189568,-0.02323 -0.06187,0.02559 -0.234371,0.0977 -0.38333,0.160242 -0.582302,0.244508 -1.311119,0.111211 -1.937499,-0.354361 l -0.166667,-0.123879 -0.25,0.08882 c -0.194072,0.06895 -0.352535,0.08953 -0.708333,0.092 -0.40156,0.0028 -0.480471,-0.0086 -0.637052,-0.09224 C 2.204151,17.893007 2.110313,17.723667 2.11012,17.408293 2.109642,16.628752 2.678575,16.174179 3.570442,16.241506 l 0.360642,0.02723 0.02493,-0.511453 c 0.01371,-0.281299 0.05327,-0.613728 0.08792,-0.73873 0.229227,-0.827106 0.833802,-1.432496 1.649894,-1.652118 0.148667,-0.04001 0.292179,-0.0892 0.318916,-0.10931 0.03397,-0.02555 0.04165,-0.153177 0.02552,-0.423619 -0.02781,-0.466134 0.02584,-0.729656 0.227839,-1.119025 0.277613,-0.535134 0.983528,-1.043311 1.614696,-1.162395 0.1375,-0.02594 0.266638,-0.0621 0.286973,-0.08035 0.02033,-0.01825 0.03386,-0.189045 0.03005,-0.379544 -0.01897,-0.9496883 0.51324,-1.7127891 1.390348,-1.9935277 0.09114,-0.029171 0.314309,-0.064242 0.495932,-0.077936 l 0.330225,-0.024897 0.0085,-0.5 c 0.0095,-0.5597832 0.06525,-0.7877643 0.279569,-1.1438007 0.101388,-0.1684259 0.188006,-0.2534089 0.335116,-0.3287876 0.197287,-0.1010896 0.199923,-0.1012747 0.475132,-0.03336 0.457348,0.1128617 0.661819,0.3258383 0.789034,0.821856 0.07931,0.3092177 0.06324,0.6944676 -0.04716,1.1310518 -0.03898,0.1541611 -0.06101,0.3059998 -0.04896,0.3374194 0.01411,0.03677 0.124415,0.066652 0.309546,0.083858 0.538046,0.050006 1.051447,0.2966522 1.317314,0.6328585 0.153053,0.193547 0.338265,0.606433 0.397382,0.88587 0.02563,0.1211643 0.05901,0.4096383 0.07418,0.6410523 0.02488,0.379593 0.03608,0.422977 0.114502,0.443485 0.245879,0.0643 0.745196,0.362113 0.949265,0.566181 0.496241,0.496241 0.629752,1.035573 0.5625,2.272288 l -0.0078,0.143305 0.376248,0.127529 c 1.057783,0.358531 1.49544,1.015541 1.49355,2.242111 -4.5e-4,0.292188 0.0099,0.532528 0.02302,0.534088 0.01312,0.0016 0.192594,0.0084 0.398844,0.01525 0.47852,0.01584 0.797863,0.131746 1.045625,0.379508 0.196208,0.196209 0.249152,0.361128 0.214533,0.668268 -0.0408,0.361953 -0.312547,0.637759 -0.80456,0.816572 -0.327403,0.118988 -1.038776,0.127021 -1.421791,0.01606 l -0.25786,-0.07471 -0.24214,0.190077 c -0.309337,0.242826 -0.624823,0.381414 -1.00119,0.43981 -0.330945,0.05135 -0.360117,0.05143 -0.656438,0.0019 z"
       id="path11390"
       inkscape:label="hair" /><path
       style="fill:#f8c89e;stroke-width:1"
       d="M 9.350046,18.852425 C 8.846262,18.691378 8.311636,18.218716 8.168762,17.808051 8.015851,17.368539 8.088542,15.959528 8.371793,13.872485 l 0.05067,-0.373351 0.249763,-0.04997 c 0.231999,-0.04642 0.266733,-0.04284 0.488328,0.05043 0.264886,0.111488 0.583987,0.130673 0.890353,0.05353 0.169652,-0.04272 0.209201,-0.0365 0.445534,0.07006 0.196353,0.08853 0.343786,0.121482 0.606925,0.13564 l 0.34757,0.0187 -0.02794,0.109157 c -0.07131,0.278582 -0.071,0.722059 7.04e-4,0.998522 l 0.07303,0.281566 -0.147749,0.206202 c -0.314835,0.43939 -0.366253,0.986961 -0.13673,1.456091 l 0.113645,0.232282 -0.101954,0.133914 c -0.271851,0.357069 -0.385276,0.816099 -0.288356,1.166974 0.0429,0.155319 0.0407,0.160204 -0.127017,0.281697 -0.373535,0.270588 -0.989052,0.358577 -1.458524,0.208499 z m 0.774007,-1.085339 c 0.171996,-0.204405 0.212726,-0.511585 0.128377,-0.9682 -0.09724,-0.526372 -0.130706,-0.573923 -0.403842,-0.573727 -0.145872,8.3e-5 -0.263972,0.02831 -0.357644,0.08542 -0.119974,0.07314 -0.180159,0.08129 -0.423416,0.05732 l -0.283562,-0.02794 -0.07069,0.13671 c -0.06499,0.125675 -0.06538,0.147852 -0.0049,0.274761 0.04368,0.0916 0.104787,0.146601 0.181612,0.16346 0.209096,0.04588 0.219946,0.05595 0.219946,0.20408 0,0.127481 -0.01857,0.15434 -0.14248,0.206114 -0.225421,0.09419 -0.304735,0.321651 -0.158348,0.454129 0.05262,0.04762 0.176698,0.07125 0.427083,0.08131 0.194101,0.0078 0.449682,0.018 0.567958,0.02267 0.192642,0.0076 0.225967,-0.0045 0.319875,-0.116102 z m -0.73111,-2.130793 c 0.0085,-0.04485 -0.02672,-0.07775 -0.10381,-0.097 -0.347989,-0.08686 -0.354869,-0.452333 -0.01258,-0.668408 0.0934,-0.05896 0.158649,-0.125282 0.144993,-0.147378 -0.04235,-0.06853 -0.211744,-0.04431 -0.327624,0.04684 -0.302482,0.237932 -0.314066,0.732189 -0.02103,0.897487 0.128773,0.07264 0.303587,0.05541 0.320059,-0.03154 z m 1.087639,-1.176842 c 0.05939,-0.07156 0.01982,-0.183113 -0.07208,-0.203202 -0.04295,-0.0094 0.0298,-0.06605 0.191047,-0.148805 0.23978,-0.12305 0.316565,-0.217822 0.223222,-0.275511 -0.06029,-0.03726 -0.733639,0.323505 -0.733639,0.39307 0,0.03802 0.03673,0.0612 0.09375,0.05919 0.06934,-0.0024 0.09375,0.02015 0.09375,0.08681 0,0.150307 0.112222,0.198976 0.203951,0.08845 z M 8.960723,14.283045 c 0.03625,-0.01391 0.06591,-0.06797 0.06591,-0.120141 0,-0.05981 0.03079,-0.1029 0.08333,-0.116641 0.04583,-0.01199 0.08333,-0.04184 0.08333,-0.06635 0,-0.05872 -0.500006,-0.377912 -0.59375,-0.379036 -0.139938,-0.0017 -0.07134,0.128547 0.135417,0.257074 0.207314,0.128874 0.260948,0.200384 0.150291,0.200384 -0.0802,0 -0.120225,0.123318 -0.06257,0.192781 0.05474,0.06596 0.05138,0.06518 0.138042,0.03193 z"
       id="path11454"
       inkscape:label="face" /><path
       id="path11370"
       style="display:inline;fill:#000000;fill-rule:evenodd;stroke-width:0.111111;stroke-linecap:round;stroke-linejoin:bevel;paint-order:markers stroke fill"
       d="m 11.346191,5.7714844 c -0.244842,0.0018 -0.478181,0.095611 -0.645345,0.2942708 -0.278392,0.3308556 -0.44638,0.8486603 -0.45817,1.4125163 l -0.0073,0.3541667 -0.3277185,0.029948 C 8.8820933,7.9559252 8.073813,8.8568328 8.03125,9.953776 l -0.014404,0.371338 -0.3052572,0.0896 c -1.1799342,0.346407 -1.913892,1.297841 -1.860677,2.412109 l 0.013672,0.286051 -0.2718912,0.09196 c -1.116724,0.377655 -1.7125418,1.188786 -1.8125819,2.467611 l -0.02946,0.376871 -0.3388671,3.26e-4 c -0.8757997,9.37e-4 -1.4872743,0.562768 -1.4838054,1.363363 0.0025,0.575368 0.4150599,0.90861 1.1249186,0.90861 0.2045892,0 0.5021172,-0.03297 0.6836752,-0.07577 0.2535413,-0.05977 0.3362799,-0.06528 0.3914388,-0.02604 0.7638668,0.543386 1.5857853,0.65643 2.272054,0.3125 0.1896372,-0.09504 0.3186849,-0.103224 0.3186849,-0.02026 0,0.01994 -0.24844,0.239501 -0.5520833,0.487956 -1.1058451,0.904847 -2.2822522,2.19431 -2.4977214,2.737712 -0.088329,0.222743 -0.092391,0.560671 -0.013102,1.08667 0.1112301,0.737938 0.4101526,1.471478 0.8806152,2.160888 l 0.2369792,0.34725 -0.072266,0.520833 c -0.1145437,0.825637 -0.1869103,1.472268 -0.1978353,1.768148 0,0 -0.063467,0.221024 -0.010091,0.273519 0.00425,0.0042 0.051184,0.0093 0.1350098,0.01522 8.901e-4,-0.0026 0.00174,-0.0053 0.00293,-0.0081 0.01656,-0.0401 0.046978,-0.251049 0.067627,-0.46875 0.2657604,-2.801663 0.9308618,-5.183848 2.1858724,-7.829102 0.2397774,-0.505385 0.273809,-0.644422 0.1523438,-0.621989 -0.1152712,0.0213 -0.7847439,1.487265 -1.2430827,2.721924 -0.1105942,0.297917 -0.2065148,0.549267 -0.2131348,0.558675 -0.0066,0.0094 -0.046411,-0.01395 -0.08846,-0.052 -0.1747072,-0.158109 -0.2427552,-0.0011 -0.085937,0.198242 l 0.088053,0.111979 -0.1719563,0.574707 c -0.1738362,0.580905 -0.4621104,1.757393 -0.4624024,1.887207 -9.9e-4,0.439713 -0.7371716,-0.860186 -0.940511,-1.660645 -0.0594,-0.233814 -0.1151915,-0.601092 -0.1298015,-0.855061 -0.02435,-0.423288 -0.020152,-0.456117 0.084147,-0.666667 0.1888504,-0.381231 0.5192287,-0.780581 1.2543131,-1.516113 0.7588257,-0.75929 1.7424394,-1.580806 1.8875326,-1.579672 0.00348,2.7e-5 0.00645,5.24e-4 0.00895,0.0015 0.035399,0.01397 0.2003099,0.03593 0.3664551,0.04883 0.1661444,0.0129 0.3020833,0.041 0.3020833,0.06242 0,0.02142 -0.1885837,0.383952 -0.4191081,0.805664 -0.6520884,1.1929 -1.0647038,2.119399 -1.0211588,2.292887 0.01278,0.05092 0.1076639,0.145908 0.2108561,0.211101 0.1031922,0.06519 0.1874638,0.13732 0.1872558,0.160237 -2.08e-4,0.02292 -0.1411712,0.09444 -0.3132324,0.158936 -0.1847364,0.06924 -0.3366351,0.154549 -0.3710123,0.208333 -0.1132312,0.17715 -0.1694993,1.255974 -0.1676433,3.216065 9.75e-4,1.031242 0.015424,1.926563 0.032064,1.989583 l 0.027262,0.103109 c 0.044384,0.0015 0.090557,0.003 0.1366374,0.0045 l 0.00903,-2.190918 h -8.14e-5 c 0.0087,-2.140808 0.046153,-2.909144 0.1476237,-3.031413 0.02629,-0.03168 0.194945,-0.106593 0.3748372,-0.166504 0.5046265,-0.168057 0.5308878,-0.266731 0.1424154,-0.536051 -0.1980722,-0.137325 -0.2287195,-0.175707 -0.2075195,-0.260173 0.068499,-0.272936 0.503911,-1.193502 0.9755045,-2.0625 0.4955045,-0.913058 0.5365641,-0.974807 0.6843262,-1.031006 0.064837,-0.02466 0.1265972,-0.04015 0.1587728,-0.04102 0.010725,-2.93e-4 0.018166,0.001 0.021322,0.0042 0.01262,0.01262 -0.1374823,0.512099 -0.3335775,1.109945 -1.0954281,3.339664 -1.5523982,5.536773 -1.5790202,7.591878 l -0.00798,0.620036 -0.1735026,3.26e-4 c 0.08691,0.0027 0.1771525,0.0053 0.2688802,0.0079 2.438e-4,-0.0058 0.024164,-0.572946 0.030924,-0.778483 0.017445,-0.530366 0.052601,-1.012219 0.092855,-1.404297 C 6.619768,25.607583 6.9999841,23.399999 7.3999837,22 7.967208,20.014715 8.455485,18.575602 8.455485,18.575602 c 0,0 0.4643524,0.368786 0.7445476,0.424398 0.5638824,0.111918 1.3999274,-2.8e-5 1.7108564,-0.217122 0.08907,0.0171 0.152839,0.03233 0.197103,0.180582 -0.307969,1.236504 -0.70796,2.636541 -0.907959,4.03654 -0.2475394,1.732772 -0.3348515,3.648345 -0.4646001,5.047363 1.7406161,0.01947 3.5639271,0.01422 4.8645831,-0.04728 0.07268,-0.0034 -0.08552,-0.245833 -0.117106,-0.371907 -0.01523,-0.06077 -0.04686,-0.172631 -0.03475,-0.184733 0.0121,-0.0121 0.10367,-0.02541 0.20345,-0.02962 0.332952,-0.01403 0.567139,-0.235405 0.567139,-0.536132 0,-0.2068 -0.188808,-0.330833 -0.447917,-0.29419 -0.0974,0.01377 -0.177083,0.01045 -0.177083,-0.0075 0,-0.01787 0.0916,-0.126809 0.203532,-0.242106 0.568404,-0.585522 1.340075,-1.624889 1.764404,-2.376383 0.527501,-0.9342 0.563024,-1.228845 0.228841,-1.897055 -0.262435,-0.524758 -0.894814,-1.388535 -1.757405,-2.400472 l -0.147136,-0.172607 0.42684,0.02157 c 0.636467,0.03221 1.100262,-0.114343 1.578938,-0.499024 l 0.153728,-0.123535 0.266357,0.06681 c 0.334304,0.08384 0.928521,0.08505 1.27832,0.0026 0.675582,-0.159243 1.128581,-0.638697 1.128581,-1.194499 0,-0.58215 -0.661122,-1.072562 -1.447917,-1.074056 l -0.260416,-4.88e-4 v -0.430909 c 0,-1.182013 -0.535497,-1.979378 -1.573161,-2.342366 l -0.281006,-0.09823 0.014,-0.491374 c 0.03312,-1.160099 -0.36592,-1.902628 -1.263997,-2.352051 l -0.375,-0.187662 -0.02604,-0.392497 c -0.07802,-1.176888 -0.591883,-1.8915913 -1.54191,-2.1444499 -0.12304,-0.03275 -0.27059,-0.059998 -0.327881,-0.060628 -0.192013,-0.0021 -0.207443,-0.039132 -0.138835,-0.3336588 0.04196,-0.1801095 0.05818,-0.4165119 0.0485,-0.7079265 C 12.532563,6.7678677 12.514445,6.6746234 12.413981,6.469401 12.194432,6.02093 11.754274,5.7684434 11.346191,5.7714844 Z m -0.08716,0.1711426 c 10e-4,-1.94e-5 0.0021,7.3e-6 0.0032,0 0.0022,-1.52e-5 0.0044,-3.61e-5 0.0066,0 0.05518,8.961e-4 0.123411,0.017569 0.243815,0.047282 0.45734,0.1128601 0.661855,0.325845 0.789062,0.8218587 0.07931,0.3092153 0.06328,0.6944419 -0.04712,1.1310221 -0.03898,0.1541603 -0.06104,0.3059828 -0.04899,0.3374024 0.01411,0.036769 0.12444,0.066697 0.309571,0.083903 0.538038,0.050005 1.051434,0.2966086 1.317301,0.6328125 0.153053,0.1935454 0.338263,0.6064703 0.39738,0.8859049 0.02563,0.1211644 0.05897,0.4096254 0.07414,0.6410314 0.02488,0.379593 0.03608,0.423015 0.114502,0.443523 0.245879,0.06429 0.745231,0.362094 0.9493,0.566162 0.496241,0.496233 0.629752,1.035591 0.5625,2.272298 l -0.0077,0.14331 0.376221,0.127523 c 1.057775,0.358531 1.495461,1.015552 1.493571,2.242106 -4.5e-4,0.292188 0.0099,0.532539 0.02303,0.534099 0.01312,0.0016 0.192602,0.0084 0.398845,0.01522 0.478519,0.01584 0.797892,0.131714 1.045654,0.379476 0.196201,0.196201 0.249137,0.361154 0.214518,0.668294 -0.0408,0.361953 -0.3126,0.637756 -0.804606,0.816569 -0.327403,0.118988 -1.038779,0.126995 -1.421794,0.01603 l -0.257812,-0.07471 -0.242188,0.190104 c -0.309336,0.242826 -0.624779,0.381464 -1.001139,0.43986 -0.330911,0.05135 -0.360175,0.05136 -0.656413,0.0019 h -8.1e-5 c -0.297006,-0.04966 -0.541353,-0.151748 -0.756755,-0.316162 l -0.187744,-0.143392 -0.193196,0.128011 c -0.54837,0.363222 -1.503584,0.426468 -2.138347,0.141601 -0.425894,-0.191131 -0.691569,-0.572324 -0.733642,-1.052571 -0.02543,-0.290214 0.08934,-0.622087 0.300537,-0.868815 0.17022,-0.198872 0.17452,-0.228159 0.05721,-0.392904 -0.114765,-0.161172 -0.203369,-0.459806 -0.203369,-0.685547 0,-0.240668 0.140209,-0.60126 0.315267,-0.810791 0.07869,-0.09419 0.143066,-0.194607 0.143066,-0.223226 0,-0.02862 -0.0375,-0.161054 -0.08333,-0.294271 -0.09881,-0.287193 -0.104923,-0.643155 -0.01506,-0.875 0.03553,-0.09167 0.074,-0.215728 0.08545,-0.275716 l 0.02083,-0.109131 -0.458821,-0.01888 c -0.40915,-0.01686 -0.487448,-0.03306 -0.72461,-0.149821 -0.261462,-0.128718 -0.269338,-0.129831 -0.468506,-0.06991 -0.3066162,0.09228 -0.5904024,0.07704 -0.854329,-0.04582 -0.1809724,-0.08423 -0.2620299,-0.09999 -0.3958334,-0.07699 -0.2468253,0.04244 -0.4677365,0.02597 -0.6053059,-0.04517 -0.2626084,-0.135801 -0.3573376,-0.009 -0.104655,0.140055 0.080209,0.04732 0.1458333,0.11179 0.1458333,0.143311 0,0.03152 -0.046199,0.430658 -0.1027018,0.886881 -0.3096856,2.500805 -0.3051198,3.251315 0.022868,3.783529 0.069169,0.112234 0.116332,0.228425 0.104899,0.258219 -0.03498,0.09117 -0.3607609,0.160597 -0.7333984,0.15625 -0.3659078,-0.0043 -0.6585002,-0.08132 -0.8020833,-0.211263 -0.062909,-0.05693 -0.097707,-0.06124 -0.1895345,-0.02327 -0.061869,0.02559 -0.234424,0.0977 -0.3833822,0.160238 -0.5822972,0.244508 -1.3111248,0.111235 -1.9375,-0.354329 l -0.1666667,-0.123861 -0.25,0.08879 c -0.1940704,0.06895 -0.3525377,0.08949 -0.7083333,0.09196 -0.4015568,0.0028 -0.4804648,-0.0086 -0.6370443,-0.0922 -0.2479263,-0.132388 -0.3417666,-0.30174 -0.3419596,-0.617106 -4.78e-4,-0.779541 0.568508,-1.234068 1.4603678,-1.166749 l 0.3605957,0.02718 0.024984,-0.511474 c 0.01371,-0.281299 0.053241,-0.613686 0.087891,-0.738688 0.2292254,-0.827098 0.8338168,-1.432478 1.6499023,-1.6521 0.1486655,-0.04001 0.2921921,-0.08918 0.3189291,-0.109294 0.03397,-0.02555 0.041602,-0.153223 0.025472,-0.423665 -0.02781,-0.466126 0.025867,-0.729609 0.2278646,-1.118978 0.2776106,-0.535126 0.9835015,-1.043351 1.6146647,-1.162435 0.1374991,-0.02594 0.266693,-0.06207 0.287028,-0.08032 0.02033,-0.01825 0.033839,-0.189058 0.030029,-0.379557 -0.01897,-0.9496825 0.5131979,-1.7128349 1.3902994,-1.9935711 0.091139,-0.029171 0.314308,-0.064188 0.4959305,-0.077881 l 0.330241,-0.024902 0.0085,-0.5 C 10.43245,6.9360945 10.48817,6.7081073 10.702491,6.3520741 10.803871,6.183649 10.890505,6.0986767 11.037614,6.023298 11.143441,5.969073 11.193209,5.943871 11.259131,5.94265 Z m -2.3827309,7.477376 c 0.00201,-3e-5 0.00404,-7e-6 0.00602,0 0.080585,2.93e-4 0.1462346,0.02403 0.278239,0.07959 0.2648845,0.111488 0.5840162,0.130689 0.8903809,0.05355 0.169652,-0.04272 0.209147,-0.03649 0.445475,0.07007 0.196353,0.08853 0.343795,0.121421 0.606934,0.135579 l 0.347575,0.01872 -0.02791,0.109212 c -0.07131,0.278577 -0.07105,0.721991 6.51e-4,0.998454 l 0.07308,0.281575 -0.147787,0.206217 c -0.31483,0.43939 -0.366241,0.987007 -0.136718,1.456137 l 0.113688,0.232259 -0.10197,0.13387 c -0.271846,0.357069 -0.385331,0.816122 -0.288411,1.166992 0.0429,0.155319 0.04076,0.160246 -0.126953,0.281739 C 10.435059,18.91455 9.8194857,19.002541 9.3500162,18.852463 8.8462349,18.691406 8.3116556,18.218689 8.1687826,17.808024 8.0158721,17.368517 8.0885767,15.95951 8.3718262,13.872477 l 0.050619,-0.373372 0.2497558,-0.04997 c 0.086999,-0.01741 0.1463044,-0.02772 0.1980794,-0.02897 0.00202,-4.9e-5 0.00401,-1.32e-4 0.00602,-1.63e-4 z M 8.593099,13.600911 c -0.131353,0.0024 -0.06168,0.130562 0.1418457,0.257081 0.207313,0.128869 0.2609657,0.200358 0.1503092,0.200358 -0.0802,0 -0.1202363,0.123326 -0.062581,0.192789 0.05474,0.06596 0.051359,0.06515 0.1380209,0.0319 0.03625,-0.01391 0.065918,-0.06795 0.065918,-0.120117 0,-0.05981 0.030793,-0.102958 0.083333,-0.116699 0.04583,-0.01199 0.083333,-0.04181 0.083333,-0.06633 0,-0.05872 -0.5000065,-0.377864 -0.59375,-0.378988 -0.00219,-2.6e-5 -0.00434,-3.7e-5 -0.00643,0 z m 2.214518,0.228353 c -9.64e-4,3.2e-5 -0.002,8.7e-5 -0.003,1.63e-4 -0.123654,0.0092 -0.715495,0.330372 -0.715495,0.395589 0,0.03802 0.03673,0.06117 0.09375,0.05916 0.06934,-0.0024 0.09375,0.02017 0.09375,0.08683 0,0.150307 0.11221,0.198988 0.203939,0.08846 0.05939,-0.07156 0.01988,-0.183118 -0.07202,-0.203207 -0.04295,-0.0094 0.02975,-0.06609 0.190999,-0.148844 0.23978,-0.12305 0.316569,-0.217783 0.223226,-0.275472 -0.0033,-0.002 -0.0084,-0.0029 -0.01514,-0.0027 z m -1.4877114,0.854818 c -0.068857,0.0013 -0.1569279,0.03194 -0.2259928,0.08626 -0.3024805,0.237932 -0.3140307,0.732163 -0.020996,0.897461 0.128772,0.07264 0.3035963,0.05546 0.3200683,-0.03149 h -8.14e-5 c 0.0085,-0.04485 -0.02667,-0.07775 -0.1037597,-0.097 -0.3479875,-0.08686 -0.354901,-0.452387 -0.012614,-0.668457 0.0934,-0.05896 0.1586756,-0.125284 0.1450196,-0.14738 -0.015881,-0.0257 -0.049626,-0.03833 -0.091715,-0.03931 -0.00219,-5e-5 -0.00444,-9.3e-5 -0.00667,-8.1e-5 -0.00108,6e-6 -0.00216,-2.1e-5 -0.00326,0 z m 0.5218099,1.541097 c -0.1427368,9.46e-4 -0.2585408,0.02915 -0.3507487,0.08537 -0.1199735,0.07314 -0.1801657,0.08134 -0.4234212,0.05737 l -0.2836101,-0.028 -0.070638,0.136719 c -0.06499,0.125675 -0.065365,0.147912 -0.00488,0.274821 0.04368,0.0916 0.1047343,0.146552 0.1815593,0.163411 0.2090945,0.04588 0.2199707,0.05597 0.2199707,0.204102 0,0.127481 -0.018587,0.154362 -0.1424968,0.206136 -0.22542,0.09419 -0.3047519,0.321628 -0.1583659,0.454101 0.05262,0.04762 0.1766994,0.07124 0.4270834,0.0813 0.1941,0.0078 0.4496774,0.01804 0.5679524,0.02271 0.192641,0.0076 0.2260024,-0.0045 0.3199054,-0.116129 0.171996,-0.204405 0.212767,-0.51157 0.128418,-0.96818 -0.09724,-0.526372 -0.130754,-0.573927 -0.4038898,-0.573731 -0.00228,1e-6 -0.00457,-1.5e-5 -0.00684,0 z m -0.029948,0.208171 c 0.00117,-2e-5 0.00236,0 0.0035,0 0.1839562,0 0.125944,0.06631 -0.087891,0.100504 -0.09685,0.01549 -0.2331709,0.06246 -0.3029785,0.10433 -0.1469436,0.08814 -0.2958819,0.122118 -0.4290365,0.09798 -0.05867,-0.01063 -0.09375,-0.04682 -0.09375,-0.09676 0,-0.07253 0.022462,-0.07746 0.2465007,-0.05404 0.2074562,0.02168 0.2693136,0.01168 0.3903808,-0.06315 0.077884,-0.04814 0.1997338,-0.08765 0.2732748,-0.08887 z M 9.16569,17.506266 c 0.07378,-2.84e-4 0.1601603,0.01207 0.2487793,0.038 0.1189897,0.03483 0.2341708,0.08032 0.2559408,0.101155 0.025,0.02393 0.025,0.03482 0,0.02946 -0.02177,-0.0047 -0.1955761,-0.01487 -0.3862305,-0.02262 -0.2382974,-0.0097 -0.3416648,-0.02912 -0.3306478,-0.06217 0.018095,-0.05428 0.1007649,-0.08339 0.2121582,-0.08382 z m 1.992432,1.471924 0.202474,0.151205 c 0.196179,0.146452 0.203292,0.159215 0.224935,0.404703 0.03724,0.422404 0.165715,2.285285 0.16805,2.436442 0.0021,0.135862 -0.012,0.148858 -0.361573,0.333334 -0.2092,0.110402 -0.36388,0.21853 -0.364095,0.254476 -2.09e-4,0.03559 0.133836,0.132948 0.311361,0.226155 0.171481,0.09003 0.353207,0.207774 0.403809,0.261638 l 0.09204,0.09798 -0.552328,1.65503 c -0.506922,1.518979 -0.881185,2.82494 -0.881185,3.075032 0,0.09718 -0.0107,0.10083 -0.294433,0.10083 -0.2610882,0 -0.2919629,-0.0083 -0.2723799,-0.07292 0.01215,-0.0401 0.042153,-0.429168 0.066732,-0.864584 0.1441789,-2.554425 0.4820889,-4.857796 1.0679519,-7.279622 z m 2.986328,0.197266 0.143229,0.09766 c 0.23779,0.16218 1.444712,1.619472 1.922933,2.321777 0.374815,0.550451 0.533195,0.897324 0.556478,1.218832 0.01937,0.267433 0.01272,0.291267 -0.210124,0.75 -0.393067,0.809133 -1.166112,1.902887 -1.858805,2.630045 -0.361693,0.379688 -0.422597,0.393885 -0.808594,0.188151 -0.280493,-0.149502 -0.714762,-0.559273 -0.839681,-0.792236 l -0.08089,-0.150879 0.296143,-0.61735 c 0.352196,-0.734008 0.623119,-1.378754 0.658447,-1.567057 0.02136,-0.113852 -0.0038,-0.180273 -0.15332,-0.405681 -0.196099,-0.295453 -1.065738,-1.207386 -1.151205,-1.207194 -0.152549,3.33e-4 -0.06308,0.14591 0.335531,0.545899 0.429321,0.430798 0.780355,0.888304 0.780355,1.017008 0,0.102852 -0.325224,0.873588 -0.724284,1.716553 -0.197485,0.417151 -0.35905,0.805915 -0.35905,0.863932 0,0.05802 -0.05465,0.194838 -0.1215,0.304037 -0.267022,0.436164 -0.383437,1.022435 -0.295492,1.488525 0.02839,0.150453 0.06819,0.283779 0.08846,0.296305 0.130598,0.08071 -0.04747,0.101237 -0.880127,0.101237 -0.860224,0 -0.914674,-0.0045 -0.87858,-0.07292 0.02116,-0.0401 0.09812,-0.335425 0.17098,-0.65625 0.07285,-0.320833 0.382216,-1.333341 0.6875,-2.25 0.305275,-0.916659 0.567583,-1.734 0.582845,-1.816325 0.0246,-0.132689 0.01302,-0.162082 -0.101726,-0.258627 -0.07119,-0.0599 -0.222674,-0.161315 -0.33667,-0.225341 -0.113988,-0.06403 -0.207225,-0.125749 -0.207194,-0.137207 3.1e-5,-0.01146 0.100965,-0.07359 0.224284,-0.138021 0.408173,-0.213267 0.403643,-0.200812 0.336833,-0.924479 -0.07655,-0.829195 -0.151136,-2.028226 -0.127604,-2.051758 0.01033,-0.01033 0.150372,0.01119 0.311198,0.04777 0.583261,0.132661 1.274335,0.06031 1.773925,-0.185628 z m -1.294271,6.555582 c 0.03562,-0.0019 0.163502,0.106887 0.376221,0.323324 0.287383,0.292406 0.42528,0.398228 0.663899,0.50944 0.274617,0.127989 0.344314,0.196075 0.237224,0.231771 -0.02187,0.0073 -0.175413,-0.0518 -0.341227,-0.131266 -0.334386,-0.16025 -0.669673,-0.447455 -0.848226,-0.726644 -0.08748,-0.136781 -0.115592,-0.205165 -0.08789,-0.206625 z m -0.07861,0.357504 c 0.05035,-0.0013 0.116013,0.07063 0.248698,0.209635 l 0.247477,0.259359 -0.06193,0.211263 c -0.04845,0.165271 -0.09963,0.238611 -0.235108,0.336751 -0.09526,0.06901 -0.173258,0.146823 -0.173258,0.172933 0,0.05067 0.112255,0.116885 0.364583,0.214925 0.117524,0.04566 0.156301,0.08446 0.156494,0.156576 1.3e-4,0.05273 0.02718,0.147429 0.06006,0.210449 0.05825,0.111683 0.05689,0.114583 -0.05436,0.114583 -0.09106,0 -0.12412,-0.02755 -0.16333,-0.135986 -0.06773,-0.187315 -0.274185,-0.427114 -0.335205,-0.389404 -0.07116,0.04398 -0.06409,0.06689 0.0944,0.307535 l 0.143392,0.217855 h -0.28093 -0.280924 L 12.45166,27.73291 c -0.09988,-0.48357 -0.04904,-0.956045 0.148845,-1.383138 0.08122,-0.17531 0.117471,-0.25983 0.171061,-0.26123 z m 0.65861,0.594808 c 6.9e-5,-9e-6 1.77e-4,0 2.44e-4,0 0.0086,0 0.104065,0.04474 0.212158,0.09945 0.108092,0.05471 0.278674,0.124033 0.379069,0.154053 0.173628,0.05192 0.186398,0.04987 0.261638,-0.04305 0.06978,-0.08619 0.0919,-0.09192 0.187744,-0.04826 0.06411,0.02924 0.179824,0.03882 0.282389,0.02344 0.226847,-0.03402 0.307487,0.04402 0.224447,0.217204 -0.0853,0.177895 -0.222031,0.229191 -0.530437,0.198811 l -0.266683,-0.02629 0.02547,0.215169 c 0.01402,0.11835 0.05433,0.27305 0.0896,0.34375 0.03527,0.07069 0.06413,0.135085 0.06413,0.142985 0,0.02302 -0.374409,0.01663 -0.380209,-0.0064 -0.0029,-0.01146 -0.009,-0.03489 -0.01359,-0.05208 -0.0749,-0.277368 -0.07238,-0.351217 0.01432,-0.411947 0.145648,-0.102017 0.06194,-0.140137 -0.30778,-0.140137 -0.191947,0 -0.39862,-0.01892 -0.45931,-0.04199 l -0.110352,-0.04191 0.106527,-0.126627 c 0.05858,-0.06963 0.128765,-0.200717 0.155925,-0.291341 0.02693,-0.08992 0.05585,-0.163649 0.0647,-0.164795 z m 0.102295,0.877522 c 10e-4,-1.6e-5 0.002,-8e-6 0.0031,0 0.0147,1.19e-4 0.03344,0.0018 0.0568,0.0046 0.09342,0.0108 0.124723,0.04048 0.146403,0.138753 0.01517,0.06875 0.04128,0.157817 0.05802,0.197917 0.02503,0.05995 0.0083,0.07292 -0.09383,0.07292 -0.101701,0 -0.128761,-0.0208 -0.149251,-0.114584 -0.01377,-0.06302 -0.03749,-0.15828 -0.05265,-0.21167 -0.01858,-0.06542 -0.01801,-0.08651 0.02848,-0.08781 9.69e-4,-2.5e-5 0.0019,-6.4e-5 0.0029,-8.1e-5 z m -6.9069828,0.426107 c 0.8499269,0.02363 1.8796595,0.04559 2.9481608,0.05851 -0.9601059,-0.04359 -1.2696779,-0.04626 -2.9481608,-0.05851 z" /><path
       id="rect11508"
       style="display:inline;fill:#ffffff;fill-rule:evenodd;stroke-width:0.111111;stroke-linecap:round;stroke-linejoin:bevel;paint-order:markers stroke fill"
       d="M 6.5071299,27.204296 C 6.5245746,26.673929 6.5597463,26.192078 6.6,25.8 6.6197517,25.607615 7,23.4 7.4,22 c 0.5672248,-1.985287 1.0554751,-3.424385 1.0554751,-3.424385 0,0 0.4643295,0.368773 0.7445249,0.424385 0.563883,0.111918 1.4,0 1.710929,-0.217095 C 11,18.8 11.063705,18.81524 11.107969,18.963495 10.8,20.2 10.4,21.6 10.2,23 9.9521507,24.734945 9.8649832,26.653277 9.734965,28.052752 8.6,28 8.4,28 6.4760463,27.985912 c 0,0 0.024289,-0.575035 0.031084,-0.781619 z"
       sodipodi:nodetypes="ssscaccsccss" /><path
       style="display:inline;fill:#ed6ab6;stroke-width:1"
       d="m 14.14445,19.17546 -0.265707,0.130778 c -0.499597,0.245945 -1.190657,0.318289 -1.773925,0.185628 -0.160826,-0.03658 -0.300868,-0.0581 -0.311198,-0.04777 -0.02353,0.02353 0.05105,1.222563 0.127604,2.051758 0.06681,0.723674 0.07134,0.711212 -0.336833,0.924479 -0.123319,0.06443 -0.224253,0.126561 -0.224284,0.138021 -3.1e-5,0.01146 0.0932,0.07318 0.207194,0.137207 0.113996,0.06403 0.26548,0.165441 0.33667,0.225341 0.114742,0.09654 0.126326,0.125938 0.101726,0.258627 -0.01526,0.08232 -0.277563,0.899659 -0.582845,1.816325 -0.305284,0.916666 -0.614641,1.929167 -0.6875,2.25 -0.07286,0.320832 -0.14982,0.61615 -0.17098,0.65625 -0.03609,0.06842 0.01835,0.07292 0.87858,0.07292 0.832658,0 1.010725,-0.02053 0.880127,-0.101237 -0.02027,-0.01253 -0.06007,-0.145852 -0.08846,-0.296305 -0.08794,-0.46609 0.02847,-1.052354 0.295492,-1.488525 0.06685,-0.109199 0.1215,-0.246017 0.1215,-0.304037 0,-0.05802 0.161565,-0.446774 0.35905,-0.863932 0.399067,-0.842972 0.724284,-1.613701 0.724284,-1.716553 0,-0.128704 -0.351027,-0.586203 -0.780355,-1.017008 -0.398614,-0.399989 -0.48808,-0.545566 -0.335531,-0.545899 0.08547,-1.92e-4 0.955106,0.911741 1.151205,1.207194 0.149562,0.225408 0.17468,0.291829 0.15332,0.405681 -0.03533,0.18831 -0.306244,0.833042 -0.658447,1.567057 l -0.296143,0.61735 0.08089,0.150879 c 0.124919,0.232963 0.559188,0.642734 0.839681,0.792236 0.385997,0.205734 0.446901,0.191537 0.808594,-0.188151 0.6927,-0.727165 1.465731,-1.820905 1.858805,-2.630045 0.222848,-0.458733 0.229494,-0.48256 0.210124,-0.75 C 16.743808,22.492221 16.585425,22.145348 16.21061,21.594897 15.732389,20.892585 14.525467,19.4353 14.287677,19.27312 Z"
       id="path11801" /><path
       style="display:inline;fill:#ed6ab6;stroke-width:1"
       d="m 11.158122,18.978194 -0.18864,0.779704 c -0.58587,2.421847 -0.923773,4.725176 -1.0679521,7.279622 -0.02458,0.435416 -0.054582,0.824484 -0.066732,0.864584 -0.019583,0.06462 0.011292,0.07292 0.2723801,0.07292 0.283742,0 0.294433,-0.0037 0.294433,-0.10083 0,-0.250092 0.374256,-1.556039 0.881185,-3.075032 l 0.552328,-1.65503 -0.09204,-0.09798 c -0.0506,-0.05386 -0.232328,-0.171608 -0.403809,-0.261638 -0.177525,-0.09321 -0.31157,-0.190565 -0.311361,-0.226155 2.15e-4,-0.03595 0.154888,-0.144074 0.364095,-0.254476 0.349575,-0.184476 0.363673,-0.197472 0.361573,-0.333334 -0.0023,-0.151164 -0.13081,-2.014038 -0.16805,-2.436442 -0.02164,-0.245495 -0.02876,-0.258244 -0.224935,-0.404703 z"
       id="path11799" /><path
       style="display:inline;fill:#ed6ab6;stroke-width:1"
       d="m 7.0157878,18.704838 c -0.1450939,-0.0011 -1.1287013,0.820375 -1.8875326,1.579671 -0.7350893,0.735539 -1.0654613,1.134876 -1.2543131,1.516113 -0.1042999,0.21055 -0.1084972,0.243373 -0.084147,0.666667 0.01461,0.25397 0.070402,0.621247 0.1298015,0.855062 0.2033408,0.800465 0.939521,2.100365 0.940511,1.660645 2.92e-4,-0.129814 0.2885655,-1.306295 0.4624024,-1.887207 l 0.1719563,-0.574708 -0.088053,-0.111979 c -0.1568179,-0.199321 -0.08877,-0.356351 0.085937,-0.198242 0.04205,0.03805 0.08186,0.06148 0.08846,0.05208 0.00662,-0.0094 0.1025399,-0.260839 0.2131348,-0.558756 0.4583416,-1.234667 1.1278108,-2.700543 1.2430827,-2.721843 0.1214659,-0.02244 0.087435,0.116597 -0.1523438,0.621989 -1.2550197,2.645268 -1.9201106,5.027343 -2.1858724,7.829021 -0.02065,0.217707 -0.051067,0.42865 -0.067627,0.46875 -0.027902,0.06752 0.016164,0.07292 0.6000977,0.07292 H 5.861572 L 5.831299,27.860438 C 5.814659,27.797418 5.80021,26.902104 5.799235,25.870855 5.797375,23.91075 5.853646,22.83194 5.9668783,22.65479 6.0012563,22.60101 6.1531528,22.515697 6.3378906,22.446457 6.5099525,22.381967 6.650915,22.310441 6.651123,22.287521 6.651331,22.264601 6.56706,22.192471 6.4638672,22.127284 6.3606743,22.062094 6.2657911,21.967103 6.2530111,21.916183 6.2094661,21.742688 6.6220766,20.816203 7.2741699,19.623296 7.5046957,19.201584 7.693278,18.839052 7.693278,18.817632 c 0,-0.02142 -0.1359375,-0.04952 -0.3020833,-0.06242 -0.1661459,-0.0129 -0.3310552,-0.03486 -0.3664551,-0.04883 -0.0025,-9.87e-4 -0.00547,-0.0015 -0.00895,-0.0015 z"
       id="path11797" /><path
       style="display:inline;fill:#ed6ab6;stroke-width:1"
       d="m 8.2801107,18.648438 c -0.032176,8.75e-4 -0.093936,0.01636 -0.1587728,0.04102 -0.1477628,0.0562 -0.1888182,0.117941 -0.6843262,1.031006 -0.471597,0.869005 -0.9070047,1.789564 -0.9755045,2.0625 -0.0212,0.08447 0.00945,0.122848 0.2075195,0.260173 0.3884752,0.269327 0.3622146,0.367994 -0.1424154,0.536051 -0.1798936,0.05991 -0.3485472,0.134824 -0.3748372,0.166504 -0.1014708,0.122269 -0.1389237,0.890591 -0.1476237,3.031413 h 8.14e-5 l -0.00903,2.197916 0.1927897,-2.44e-4 0.1928711,-3.25e-4 0.00798,-0.620036 c 0.026622,-2.055119 0.4835844,-4.252187 1.5790202,-7.591878 0.1960966,-0.597847 0.3461975,-1.097325 0.3335775,-1.109945 -0.00316,-0.0032 -0.010596,-0.0044 -0.021322,-0.0042 z"
       id="path11502" /></g></svg>
