<?xml version="1.0" encoding="UTF-8" standalone="no"?>
<!-- Created with Inkscape (http://www.inkscape.org/) -->

<svg
   width="5.0736475in"
   height="11.733753in"
   viewBox="0 0 20.29459 46.935013"
   version="1.1"
   id="svg658"
   xml:space="preserve"
   inkscape:version="1.2.2 (b0a8486541, 2022-12-01)"
   sodipodi:docname="dilbert.svg"
   inkscape:export-filename="dilbert.png"
   inkscape:export-xdpi="300"
   inkscape:export-ydpi="300"
   xmlns:inkscape="http://www.inkscape.org/namespaces/inkscape"
   xmlns:sodipodi="http://sodipodi.sourceforge.net/DTD/sodipodi-0.dtd"
   xmlns="http://www.w3.org/2000/svg"
   xmlns:svg="http://www.w3.org/2000/svg"><sodipodi:namedview
     id="namedview660"
     pagecolor="#ffffff"
     bordercolor="#000000"
     borderopacity="0.25"
     inkscape:showpageshadow="2"
     inkscape:pageopacity="0.0"
     inkscape:pagecheckerboard="0"
     inkscape:deskcolor="#d1d1d1"
     inkscape:document-units="in"
     showgrid="true"
     inkscape:zoom="1.2938725"
     inkscape:cx="134.86646"
     inkscape:cy="394.93846"
     inkscape:window-width="3790"
     inkscape:window-height="2111"
     inkscape:window-x="50"
     inkscape:window-y="0"
     inkscape:window-maximized="1"
     inkscape:current-layer="layer1"><inkscape:grid
       type="xygrid"
       id="grid779"
       units="in"
       spacingx="0.2"
       originx="-32.56918"
       originy="-2.6395532"
       spacingy="0.2" /></sodipodi:namedview><defs
     id="defs655" /><g
     inkscape:label="Layer 1"
     inkscape:groupmode="layer"
     id="layer1"
     transform="translate(-32.56918,-2.6395532)"><g
       id="g3198"
       style="fill:#ffffff"><path
         style="fill:#ffffff;fill-rule:evenodd;stroke:none;stroke-width:0.111111;stroke-linecap:round;stroke-linejoin:bevel;paint-order:markers stroke fill"
         d="m 46.950596,14.899553 -0.289714,0.0944 c -0.300262,0.09789 -0.937376,0.180665 -1.390869,0.180665 -0.143666,0 -0.319644,0.01168 -0.391032,0.02596 l -0.129801,0.02596 0.16097,0.19279 c 0.247149,0.296045 0.409943,0.574314 0.507324,0.866943 0.10448,0.313962 0.06788,0.31329 0.685058,0.01237 0.229167,-0.111737 0.632292,-0.289481 0.895834,-0.394938 0.630308,-0.252221 0.628227,-0.249722 0.437662,-0.514974 -0.08418,-0.117178 -0.227847,-0.275229 -0.319254,-0.351156 z"
         id="path408" /><path
         style="fill:#ffffff;fill-rule:evenodd;stroke:none;stroke-width:0.111111;stroke-linecap:round;stroke-linejoin:bevel;paint-order:markers stroke fill"
         d="m 39.501147,15.591553 -0.217529,0.08578 c -0.960195,0.378473 -2.769894,1.450826 -3.53532,2.094889 -0.16173,0.136087 -0.166477,0.113633 0.117269,0.549968 0.29661,0.456114 1.378533,1.753812 1.501221,1.800618 0.01461,0.0056 0.188752,-0.322553 0.387044,-0.729167 0.418179,-0.857502 0.74996,-1.385172 0.871013,-1.385172 0.102605,0 0.102576,0.06096 -8.2e-5,0.205159 -0.04457,0.0626 -0.211286,0.431115 -0.370524,0.818929 -0.159237,0.387816 -0.422281,0.997555 -0.584554,1.354981 -0.435115,0.95839 -0.946223,2.472012 -1.023193,3.030192 -0.303227,2.198972 -0.172878,2.931247 0.701253,3.938965 0.872831,1.006219 2.512214,1.471875 4.2653,1.211588 0.480054,-0.07128 0.644211,-0.118917 1.062174,-0.308431 l 0.277995,-0.126058 -0.07878,-0.135579 c -0.188399,-0.324167 -0.267696,-0.867408 -0.317627,-2.177246 -0.03476,-0.911933 0.07764,-2.049142 0.312581,-3.163412 0.117367,-0.556637 0.346782,-0.570604 0.259278,-0.01579 -0.339301,2.151345 -0.240232,4.798594 0.199462,5.329996 0.318963,0.38549 1.614554,0.530275 3.12793,0.349528 1.647354,-0.196747 2.846681,-1.247777 3.04419,-2.667806 0.04134,-0.297204 0.02656,-1.641926 -0.01945,-1.770019 -0.01235,-0.03438 -0.07066,-0.465626 -0.129558,-0.958333 -0.113357,-0.948361 -0.338274,-2.128084 -0.615722,-3.229167 -0.212977,-0.845221 -0.221431,-0.906553 -0.134033,-0.979085 0.158827,-0.131816 0.291069,0.07594 0.503906,0.791585 0.08519,0.286459 0.160879,0.528068 0.168131,0.536946 0.121072,0.148198 1.633747,-1.673917 1.590088,-1.915364 -0.02664,-0.147341 -1.254105,-1.053609 -2.053629,-1.516276 -0.114584,-0.06631 -0.385618,-0.239035 -0.602295,-0.383789 -0.455675,-0.304419 -0.431611,-0.299748 -0.742676,-0.143148 -0.131117,0.06601 -0.407113,0.189639 -0.613363,0.27474 -0.206249,0.0851 -0.532626,0.228778 -0.72526,0.319335 -0.729996,0.343175 -0.850636,0.328043 -1.00529,-0.12622 -0.11406,-0.33503 -0.122623,-0.340926 -0.256022,-0.177979 -0.05322,0.06501 -0.164574,0.168464 -0.247477,0.229899 -0.14937,0.110688 -0.150384,0.113442 -0.111491,0.308838 0.122009,0.61298 0.01708,2.388079 -0.173991,2.943441 -0.424106,1.232689 -1.429663,1.919589 -2.542806,1.736979 -0.700484,-0.114915 -1.082783,-0.452129 -1.56486,-1.380371 -0.271958,-0.523655 -0.363689,-0.663441 -0.489176,-0.74528 -0.279594,-0.182345 -0.179377,-0.560375 0.497965,-1.878418 0.575155,-1.119196 0.558901,-1.104409 0.835042,-0.762044 0.08708,0.107962 0.376405,0.422024 0.642904,0.697917 0.685892,0.710071 0.838345,0.894939 0.804362,0.975667 -0.209512,0.497699 -0.28825,1.08846 -0.145019,1.08846 0.303994,0 0.722033,-0.928019 0.832275,-1.847656 0.104891,-0.875002 0.103532,-0.939563 -0.02075,-0.986816 -0.309046,-0.117499 -0.455315,-0.309494 -0.507568,-0.66626 l -0.03117,-0.212891 -0.176432,0.268555 c -0.418835,0.637648 -0.488218,0.645339 -1.436442,0.15861 -0.396238,-0.203392 -0.902415,-0.44724 -1.124838,-0.54183 z"
         id="path410" /><path
         style="fill:#ffffff;fill-rule:evenodd;stroke:none;stroke-width:0.111111;stroke-linecap:round;stroke-linejoin:bevel;paint-order:markers stroke fill"
         d="m 39.859499,14.759553 -0.178386,0.198975 c -0.22385,0.249663 -0.231231,0.223694 0.09668,0.338135 0.403897,0.140961 1.002916,0.418722 1.575439,0.73055 0.275,0.14978 0.503184,0.273147 0.50708,0.27417 0.0039,10e-4 0.126736,-0.162191 0.27295,-0.362712 0.437383,-0.599838 0.53707,-0.761666 0.47998,-0.779215 -0.02842,-0.0087 -0.267301,-0.02607 -0.530843,-0.03849 -0.471039,-0.02221 -1.49093,-0.176576 -1.976074,-0.299072 z"
         id="path406" /></g><path
       style="fill:#010101;stroke-width:1"
       d="m 46.035269,21.801431 c -0.50428,-0.26643 -0.639686,-0.667595 -0.639686,-1.895187 V 18.94791 l 0.311675,-0.0625 0.311675,-0.0625 8.25e-4,-0.288025 c 5.5e-4,-0.191905 0.01812,-0.293848 0.05265,-0.305471 0.06343,-0.02135 0.135447,0.156071 0.136311,0.335792 10e-4,0.210269 0.03866,0.23816 0.282483,0.209283 0.119284,-0.01413 0.216879,-0.03763 0.216879,-0.05223 0,-0.139822 0.09606,-0.740637 0.122727,-0.767566 0.06478,-0.06543 0.09807,0.06756 0.09107,0.363892 -0.0089,0.378671 0.0056,0.398423 0.264847,0.358798 0.336885,-0.0515 0.334877,-0.0558 0.379199,0.81219 0.06073,1.189233 -0.21603,2.146195 -0.676304,2.33851 -0.204338,0.08538 -0.669788,0.07086 -0.854352,-0.02666 z m 0.686514,-0.222855 c 0.426955,-0.178393 0.704062,-1.210535 0.624799,-2.327195 l -0.02608,-0.367387 -0.129127,0.02132 c -0.467652,0.07722 -1.113392,0.146763 -1.362743,0.146763 H 45.53538 l 0.02726,0.739583 c 0.0542,1.470336 0.451388,2.082634 1.15914,1.786916 z"
       id="path667"
       inkscape:label="pocket" /><g
       id="g649"
       inkscape:label="tie stripes"><path
         style="fill:#e01b24;fill-rule:evenodd;stroke:none;stroke-width:0.111111;stroke-linecap:round;stroke-linejoin:bevel;paint-order:markers stroke fill"
         d="m 42.523043,20.057252 c -0.01071,1.01e-4 -0.02178,8.26e-4 -0.03353,0.002 -0.276738,0.02655 -0.1752,0.40514 0.206136,0.768636 0.274798,0.261942 0.277156,0.262424 0.50765,0.09546 L 43.380464,20.79493 43.004162,20.4205 c -0.30869,-0.307224 -0.377636,-0.364176 -0.48112,-0.3632 z"
         id="path644" /><path
         style="fill:#e01b24;fill-rule:evenodd;stroke:none;stroke-width:0.111111;stroke-linecap:round;stroke-linejoin:bevel;paint-order:markers stroke fill"
         d="m 42.288993,18.470175 -0.107177,0.04077 c -0.385769,0.14667 -1.023763,0.666967 -1.504069,1.226482 l -0.215984,0.251546 0.167806,0.32251 c 0.208893,0.401516 0.474836,0.693093 0.555746,0.609293 0.03008,-0.03115 0.182856,-0.31072 0.339437,-0.621256 0.349765,-0.693668 0.404399,-0.822028 0.496175,-1.164551 0.03991,-0.148958 0.116568,-0.35944 0.170329,-0.467774 z"
         id="path642" /><path
         style="fill:#e01b24;fill-rule:evenodd;stroke:none;stroke-width:0.111111;stroke-linecap:round;stroke-linejoin:bevel;paint-order:markers stroke fill"
         d="m 42.990898,15.853801 c -0.047,-5.9e-5 -0.03769,0.04437 -0.02222,0.13973 0.05888,0.362815 0.259401,0.483377 0.768717,0.46224 0.189564,-0.0079 0.366011,-0.03561 0.39209,-0.06169 0.0493,-0.0493 -0.240263,-0.199746 -0.847982,-0.440592 -0.163761,-0.0649 -0.249137,-0.09964 -0.290608,-0.09969 z"
         id="path638" /></g><g
       id="g702"
       inkscape:label="Glasses"><path
         style="fill:#ffffff;fill-rule:evenodd;stroke:none;stroke-width:0.111111;stroke-linecap:round;stroke-linejoin:bevel;paint-order:markers stroke fill"
         d="m 44.671719,7.3796248 c -0.533358,0.011574 -0.945545,1.2075162 -0.49943,1.7746582 0.17067,0.2169714 0.51528,0.2398218 0.687744,0.045573 0.345309,-0.3889242 0.353571,-1.5779028 0.01229,-1.7674967 -0.06779,-0.03766 -0.135102,-0.054156 -0.200602,-0.052734 z"
         id="path692" /><path
         style="fill:#ffffff;fill-rule:evenodd;stroke:none;stroke-width:0.111111;stroke-linecap:round;stroke-linejoin:bevel;paint-order:markers stroke fill"
         d="m 43.063646,7.3657902 c -0.420115,0.00832 -0.736973,0.7677925 -0.545573,1.581543 0.09907,0.4211961 0.406549,0.5644713 0.735921,0.3428548 0.504085,-0.3391713 0.570966,-1.4153834 0.11198,-1.8015951 -0.102968,-0.086641 -0.205378,-0.1247237 -0.302328,-0.1228027 z"
         id="path690" /></g><g
       id="g3915"
       inkscape:label="skin"><path
         style="fill:#f1dcb5;fill-opacity:0.996078;fill-rule:evenodd;stroke:#f1dcb5;stroke-width:0.111111;stroke-linecap:round;stroke-linejoin:bevel;stroke-opacity:0.996078;paint-order:markers stroke fill"
         d="m 50.901862,19.000637 c -0.03362,-5.65e-4 -0.07876,0.06246 -0.193522,0.238607 -0.100079,0.153607 -0.321384,0.420059 -0.49178,0.592122 l -0.309815,0.312826 0.247803,0.256022 c 0.982939,1.01528 0.981794,1.237509 -0.01473,2.746419 l -0.268799,0.406983 0.04622,0.337809 c 0.02544,0.185809 0.04876,0.699852 0.05176,1.142334 0.0052,0.767479 0.0093,0.80646 0.09098,0.84611 0.111713,0.05426 0.123398,0.05455 0.250732,0.0061 0.463069,-0.176059 0.767144,-0.766336 0.663005,-1.287028 -0.03561,-0.178055 -0.05384,-0.167142 -0.244792,0.146565 -0.232801,0.382469 -0.479166,0.504743 -0.479166,0.237793 0,-0.188123 0.788103,-1.427413 1.365397,-2.147054 1.161845,-1.448333 1.131528,-1.937093 -0.205404,-3.306071 C 51.185368,19.300411 50.97662,19.07812 50.94597,19.0362 c -0.01598,-0.02185 -0.02883,-0.03531 -0.04411,-0.03556 z"
         id="path3899" /><path
         style="fill:#f1dcb5;fill-opacity:0.996078;fill-rule:evenodd;stroke:#f1dcb5;stroke-width:0.111111;stroke-linecap:round;stroke-linejoin:bevel;stroke-opacity:0.996078;paint-order:markers stroke fill"
         d="m 35.450609,18.583238 c -0.0464,0.0017 -0.100041,0.04717 -0.180501,0.137044 -0.04558,0.0509 -0.279722,0.263025 -0.520345,0.471436 -1.307346,1.132322 -1.355538,1.219601 -1.027588,1.860352 0.103741,0.202687 0.820069,1.384847 1.05249,1.736897 0.07846,0.118845 0.271228,0.456347 0.428385,0.75 0.157159,0.293655 0.353771,0.646436 0.436931,0.783936 0.261849,0.432971 0.1172,0.633344 -0.194418,0.269287 -0.115793,-0.13528 -0.149094,-0.15496 -0.170084,-0.10026 -0.0647,0.168613 0.275401,0.665344 0.553467,0.808349 l 0.149983,0.07715 0.02857,-0.415853 c 0.0157,-0.228733 0.06794,-0.719121 0.116129,-1.089763 0.04819,-0.370639 0.106217,-0.743482 0.128907,-0.828532 0.04032,-0.151135 0.03233,-0.167661 -0.350017,-0.729166 -0.692349,-1.01675 -0.782623,-1.335886 -0.505534,-1.78597 0.106422,-0.172866 0.661786,-0.676519 0.88973,-0.806885 0.04386,-0.02508 -0.02206,-0.132245 -0.273519,-0.444824 -0.182213,-0.2265 -0.373748,-0.482081 -0.425618,-0.567871 -0.0514,-0.08503 -0.09056,-0.127026 -0.136963,-0.125326 z"
         id="path3897" /><path
         style="fill:#f1dcb5;fill-opacity:0.996078;fill-rule:evenodd;stroke:#f1dcb5;stroke-width:0.111111;stroke-linecap:round;stroke-linejoin:bevel;stroke-opacity:0.996078;paint-order:markers stroke fill"
         d="m 40.997159,8.4045272 c -0.04096,-2.79e-4 -0.07526,-2.184e-4 -0.1014,2.441e-4 -0.03485,6.2e-4 -0.05519,0.0019 -0.05729,0.00391 -0.09524,0.08996 -0.430666,2.8570604 -0.527506,4.3517254 -0.03489,0.53854 -0.08155,1.091668 -0.103679,1.229166 -0.07265,0.451419 -0.107463,0.413256 0.469564,0.514079 0.930107,0.162512 1.380173,0.212162 2.178467,0.240072 0.434663,0.0152 0.798198,0.03447 0.807698,0.04297 0.04115,0.03644 1.007253,0.0097 1.795085,-0.04972 1.135278,-0.0856 1.231969,-0.101976 1.218669,-0.206624 -0.0058,-0.04533 -0.0288,-0.494939 -0.05119,-0.999105 -0.02238,-0.504165 -0.06878,-1.235417 -0.103191,-1.625 -0.0397,-0.449444 -0.06295,-1.210882 -0.06356,-2.0833332 l -9.76e-4,-1.375 -0.515869,-0.011475 -0.515788,-0.011393 -0.02848,0.1901041 c -0.149197,0.994912 -0.973553,1.4027249 -1.512858,0.7484538 L 43.762377,9.215074 43.653083,9.358466 C 43.105671,10.07616 42.19632,9.6452009 42.16114,8.6513533 l -0.0075,-0.2127278 -0.649903,-0.022298 c -0.201045,-0.00689 -0.383719,-0.010963 -0.506591,-0.0118 z"
         id="path3879" /><path
         style="fill:#f1dcb5;fill-opacity:0.996078;fill-rule:evenodd;stroke:#f1dcb5;stroke-width:0.111111;stroke-linecap:round;stroke-linejoin:bevel;stroke-opacity:0.996078;paint-order:markers stroke fill"
         d="m 46.978848,8.364895 c -0.03038,7.839e-4 -0.05958,0.00786 -0.0861,0.022054 l -0.101319,0.054199 v 0.8069661 c 0,0.9782796 0.06292,1.1562996 0.331625,0.9387206 C 47.329019,10.02008 47.455318,9.0277261 47.320319,8.6374373 47.264428,8.4758545 47.11049,8.361495 46.978848,8.364895 Z"
         id="path3877" /><path
         style="fill:#f1dcb5;fill-opacity:0.996078;fill-rule:evenodd;stroke:#f1dcb5;stroke-width:0.111111;stroke-linecap:round;stroke-linejoin:bevel;stroke-opacity:0.996078;paint-order:markers stroke fill"
         d="m 40.226895,8.1463891 c -0.46034,-0.016493 -0.709332,1.5106399 -0.288167,1.9318039 0.166108,0.166109 0.301389,0.133908 0.328369,-0.078207 h 8.1e-5 c 0.228634,-1.7976868 0.228582,-1.7909497 0.0049,-1.8470866 -0.01528,-0.00383 -0.03032,-0.00598 -0.04517,-0.00651 z"
         id="path3875" /><path
         style="fill:#f1dcb5;fill-opacity:0.996078;fill-rule:evenodd;stroke:#f1dcb5;stroke-width:0.111111;stroke-linecap:round;stroke-linejoin:bevel;stroke-opacity:0.996078;paint-order:markers stroke fill"
         d="m 43.645026,2.9537622 c -0.161672,1.577e-4 -0.351271,0.054046 -0.56372,0.1617025 -0.252544,0.1279723 -0.26323,0.1278512 -0.436931,-0.00464 -0.07782,-0.059357 -0.212516,-0.1165569 -0.299316,-0.1271159 -0.156559,-0.019047 -0.179262,-0.00934 -0.485596,0.2083333 -0.107645,0.076489 -0.112649,0.076057 -0.390625,-0.037354 -0.198433,-0.080957 -0.38149,-0.1207005 -0.619791,-0.1345215 L 40.510912,3.0005558 40.33684,3.1577824 c -0.09574,0.086497 -0.159025,0.1723562 -0.140625,0.1907552 0.07783,0.077831 0.565989,0.1679571 0.762939,0.1408691 l 0.201742,-0.027751 0.05249,0.1749674 c 0.07886,0.2632168 -0.133838,3.2281404 -0.298584,4.1621094 -0.04953,0.2808144 -0.108604,0.2498891 0.564127,0.2950033 0.315238,0.02114 0.582759,0.04801 0.594483,0.059733 0.04348,0.043476 0.08275,-0.020642 0.107503,-0.1754557 0.144195,-0.9017469 1.079353,-1.2070385 1.532796,-0.5004069 l 0.128907,0.200765 0.114583,-0.1806641 c 0.459535,-0.7246132 1.261504,-0.5465904 1.425211,0.3164063 l 0.05111,0.2696126 0.439372,0.020508 c 0.241649,0.011249 0.475026,0.035333 0.518636,0.053548 0.07747,0.032357 0.07865,-0.00745 0.05119,-1.7342123 -0.03756,-2.3631931 -0.03884,-2.7478389 -0.0091,-2.7775879 0.01389,-0.013891 0.141185,-0.065432 0.282796,-0.1145019 0.657366,-0.2277818 -0.08912,-0.6018018 -0.779134,-0.3903809 -0.277788,0.085113 -0.502294,0.099766 -0.542074,0.0354 C 45.254951,2.9495903 44.672987,2.912259 44.37281,3.1109074 44.172393,3.2435364 44.162632,3.2435856 44.041348,3.1144881 43.940497,3.0071373 43.8067,2.9536045 43.645026,2.9537622 Z"
         id="path3869" /></g><g
       id="g659"
       inkscape:label="outline"><path
         id="path671"
         style="fill:#010101;stroke-width:1"
         d="M 43.618578 2.6395532 C 43.438296 2.6401234 43.249006 2.6930853 43.063972 2.7975122 C 42.936998 2.8691711 42.833096 2.9112276 42.833096 2.8909367 C 42.833096 2.6808406 42.147363 2.6426007 41.862149 2.8368188 C 41.687697 2.9556127 41.686856 2.955734 41.526944 2.8841821 C 40.908176 2.6073167 40.216224 2.7209824 39.960537 3.1414249 C 39.770238 3.4543468 40.223123 3.8020695 40.82097 3.8020695 L 40.958096 3.8020695 L 40.957933 4.0416528 C 40.957801 4.4241757 40.567053 7.8714473 40.518073 7.9221053 C 40.509633 7.9308343 40.438223 7.9073969 40.359463 7.870022 C 40.124227 7.7583954 39.949158 7.7932136 39.780199 7.9852563 C 39.113328 8.7432381 39.310899 10.418385 40.073981 10.476305 C 40.196101 10.485574 40.208524 10.497951 40.190274 10.592271 C 40.08927 11.114243 39.833015 13.641137 39.833015 14.115221 C 39.833015 14.284803 39.817843 14.343736 39.773933 14.343736 C 39.741396 14.343736 39.62088 14.442173 39.506192 14.562486 C 39.044079 15.04726 38.993184 15.139535 39.072354 15.34927 C 39.113865 15.459242 39.108453 15.467579 38.9642 15.513739 C 37.910993 15.850754 36.970837 16.332905 35.999681 17.034247 C 35.142168 17.653518 35.067859 17.759292 35.238288 18.116685 C 35.304308 18.255126 35.304671 18.270503 35.242601 18.305243 C 35.059503 18.40771 34.179878 19.147703 33.799812 19.519029 C 32.873905 20.423642 32.900194 20.588624 34.32154 22.787014 C 35.015698 23.860642 35.111183 24.045337 35.009203 24.116767 C 34.490325 24.480202 35.067721 25.621245 35.874112 25.825995 C 36.047495 25.870019 36.063616 25.885613 36.090176 26.035712 C 36.242915 26.89878 37.161635 28.09408 37.984951 28.500881 C 38.170796 28.592709 38.202577 28.626686 38.224047 28.756497 C 38.260897 28.979264 38.250479 30.13494 38.207119 30.635403 C 38.186279 30.876028 38.149898 32.038528 38.126228 33.218736 C 38.102562 34.398943 38.055732 35.908321 38.022142 36.572903 C 37.984142 37.324745 37.9608 38.646996 37.960375 40.072903 C 37.959767 42.104761 37.933222 43.428534 37.848802 45.635403 C 37.818363 46.43119 37.81783 46.430245 38.337816 46.511135 C 38.71935 46.570489 38.698012 46.6047 38.249763 46.65233 C 37.298419 46.753413 35.229435 47.130696 34.555508 47.325995 C 32.639165 47.881328 31.929594 48.903447 33.231371 49.233385 C 33.963651 49.418982 35.168973 49.444551 36.541429 49.303534 C 36.782054 49.278814 37.194554 49.241384 37.458096 49.220364 C 37.721637 49.199344 38.040591 49.169572 38.166918 49.154202 L 38.396573 49.126288 L 38.467373 49.274644 C 38.577161 49.504873 38.716561 49.528082 39.978929 49.527249 C 41.99136 49.52589 42.103045 49.47686 42.103604 48.593736 C 42.104017 47.937703 42.035862 47.599502 41.81446 47.158352 L 41.639167 46.809068 L 42.079841 46.794908 C 42.874635 46.769471 42.84916 46.829901 42.80681 45.072903 C 42.76504 43.340034 42.764339 43.472755 42.825039 41.760403 C 42.853879 40.946863 42.886916 39.456236 42.898526 38.447903 C 42.918985 36.671358 42.94972 35.83766 43.04265 34.531236 C 43.06749 34.18188 43.081532 33.094635 43.074632 32.065986 C 43.063093 30.356054 43.06738 30.222529 43.13461 30.180569 C 43.364644 30.036982 43.369437 30.102232 43.248705 31.73957 C 43.226745 32.037486 43.191029 33.293737 43.169359 34.531236 C 43.147679 35.768735 43.105926 37.484362 43.076586 38.343736 C 43.000136 40.58321 43.001006 46.640581 43.077806 46.733141 C 43.117726 46.78126 43.201068 46.80207 43.353848 46.80207 C 43.474219 46.80207 43.631028 46.81377 43.702318 46.82803 L 43.831957 46.853909 L 43.726325 46.979397 C 43.511204 47.235055 43.311626 47.777782 43.185798 48.449286 C 43.038557 49.235053 43.216029 49.438361 44.145515 49.548733 L 44.145596 49.548733 C 44.550754 49.596822 46.039317 49.573218 46.270515 49.515042 C 46.424669 49.47625 46.592044 49.337404 46.633063 49.214342 C 46.64655 49.173882 46.78959 49.178643 47.293789 49.236233 C 50.752444 49.631304 52.586019 49.460983 52.582119 48.745022 C 52.578332 48.041506 50.90744 47.503291 47.73251 47.182766 C 46.622768 47.070733 46.565771 47.060763 46.487881 46.964993 L 46.406257 46.86457 L 46.588386 46.85456 C 47.132443 46.824648 47.297038 46.793207 47.407559 46.698147 L 47.520189 46.601223 L 47.543789 45.37873 C 47.556789 44.706351 47.554297 42.83436 47.538337 41.218736 C 47.522407 39.603113 47.524185 37.812486 47.542325 37.23957 C 47.560465 36.666653 47.595909 35.541652 47.621019 34.73957 C 47.646126 33.937487 47.69523 32.512486 47.73015 31.572903 C 47.76507 30.633321 47.79343 29.592695 47.793138 29.260403 C 47.792439 28.468891 47.773815 28.513008 48.21892 28.252265 C 48.92653 27.837744 49.485212 27.203184 49.727465 26.538967 L 49.843187 26.221829 L 49.961026 26.282782 C 50.508767 26.56603 51.377323 25.826609 51.444912 25.019517 C 51.472707 24.687609 51.402786 24.307341 51.286872 24.15998 C 51.181569 24.026109 51.184624 24.020435 51.704434 23.372219 C 53.272619 21.416656 53.257669 20.721208 51.612149 19.076077 L 51.115241 18.57925 L 51.203295 18.397854 C 51.310815 18.176543 51.315267 17.984954 51.216397 17.835028 C 51.114194 17.680051 50.311723 17.050098 49.945645 16.83747 C 49.780609 16.741612 49.533096 16.594476 49.395596 16.510566 C 49.258096 16.426658 48.881506 16.220011 48.558763 16.051256 C 48.023208 15.771223 47.972012 15.734507 47.972012 15.63109 C 47.972012 15.393712 47.35433 14.625036 47.127041 14.579576 C 46.981163 14.550399 46.959055 14.415925 46.955655 13.535875 C 46.954335 13.189594 46.93618 12.690611 46.91529 12.427069 C 46.89439 12.163528 46.864461 11.63384 46.848721 11.249986 L 46.820075 10.552069 L 47.00847 10.552069 C 47.462848 10.552069 47.75328 9.9381057 47.69475 9.1013045 C 47.644328 8.3803864 47.470708 8.1145695 47.050137 8.1145695 L 46.802334 8.1145695 L 46.769619 7.0312362 C 46.75164 6.4354033 46.735117 5.4865509 46.732917 4.9226749 L 46.728929 3.8974471 L 46.909512 3.844143 C 47.365179 3.7096023 47.482199 3.3154385 47.163988 2.9871281 C 46.904313 2.7192119 46.274336 2.6328106 45.819994 2.8028019 L 45.595384 2.8867863 L 45.314867 2.75552 C 44.992783 2.6047983 44.678494 2.6054293 44.380622 2.7573917 L 44.220873 2.8389347 L 44.016608 2.7337101 C 43.893584 2.6703676 43.758797 2.6391097 43.618578 2.6395532 z M 43.645026 2.9537622 C 43.8067 2.9536045 43.940497 3.0071369 44.041348 3.1144881 C 44.162632 3.2435857 44.172393 3.2435373 44.37281 3.1109074 C 44.672988 2.9122588 45.254951 2.9495897 45.395189 3.1764998 C 45.43497 3.2408658 45.659475 3.2262133 45.937263 3.1410994 C 46.627278 2.9296783 47.373764 3.3036983 46.716397 3.5314803 C 46.574786 3.5805499 46.447491 3.6320913 46.433601 3.6459822 C 46.403871 3.6757313 46.405145 4.0603746 46.442715 6.4235701 C 46.470175 8.1503309 46.468997 8.1901393 46.391527 8.1577824 C 46.347919 8.1395674 46.11454 8.1154832 45.872891 8.1042342 L 45.433519 8.0837264 L 45.382412 7.8141138 C 45.218704 6.9511163 44.416737 6.7730936 43.957201 7.4977075 L 43.842618 7.6783716 L 43.713711 7.4776066 C 43.260267 6.7709743 42.32511 7.0762657 42.180915 7.9780135 C 42.15616 8.1328271 42.116892 8.1969452 42.073412 8.1534692 C 42.061688 8.1417462 41.794167 8.1148761 41.478929 8.0937362 C 40.806197 8.048622 40.865272 8.0795476 40.914802 7.7987329 C 41.079548 6.864763 41.292246 3.8998405 41.213386 3.6366235 L 41.160896 3.4616561 L 40.959154 3.4894067 C 40.762204 3.5164943 40.274044 3.4263685 40.196215 3.3485376 C 40.177815 3.3301384 40.2411 3.2442793 40.33684 3.1577824 L 40.510912 3.0005558 L 40.849047 3.0201684 C 41.087349 3.0339899 41.270405 3.073732 41.468838 3.1546899 C 41.746814 3.2681008 41.751818 3.2685334 41.859463 3.1920434 C 42.165797 2.9743722 42.1885 2.9646631 42.345059 2.9837101 C 42.431854 2.9942696 42.566555 3.051469 42.644375 3.110826 C 42.818076 3.243316 42.828762 3.2434385 43.081306 3.1154647 C 43.293756 3.007808 43.483353 2.9539199 43.645026 2.9537622 z M 43.063646 7.3657902 C 43.160596 7.3638692 43.263006 7.4019516 43.365974 7.4885929 C 43.82496 7.8748046 43.758079 8.9510167 43.253994 9.290188 C 42.924622 9.5118045 42.617143 9.3685293 42.518073 8.9473332 C 42.326673 8.1335827 42.643531 7.3741146 43.063646 7.3657902 z M 44.671719 7.3796248 C 44.737219 7.3782035 44.804531 7.3946996 44.872321 7.4323592 C 45.213604 7.6219531 45.205342 8.8109317 44.860033 9.1998559 C 44.687569 9.3941048 44.342959 9.3712544 44.172289 9.154283 C 43.726174 8.587141 44.138361 7.3911985 44.671719 7.3796248 z M 40.226895 8.1463891 C 40.241745 8.1469212 40.256787 8.149066 40.272061 8.1528996 C 40.49576 8.209037 40.495795 8.2022975 40.267178 9.9999862 L 40.267097 9.9999862 C 40.240121 10.212101 40.104837 10.244303 39.938728 10.078193 C 39.517563 9.6570289 39.766555 8.1298959 40.226895 8.1463891 z M 46.978848 8.364895 C 47.11049 8.3614997 47.264428 8.4758543 47.320319 8.6374373 C 47.455318 9.0277265 47.328988 10.02008 47.123054 10.186835 C 46.854354 10.404414 46.791429 10.226395 46.791429 9.2481144 L 46.791429 8.4411483 L 46.892748 8.386949 C 46.919268 8.3727556 46.948469 8.3656785 46.978848 8.364895 z M 40.895759 8.4047713 C 41.000309 8.4029216 41.235689 8.4071413 41.50375 8.4163273 L 42.153653 8.4386255 L 42.16114 8.6513533 C 42.196316 9.6452019 43.10567 10.076161 43.653083 9.358466 L 43.762377 9.215074 L 43.884854 9.3635929 C 44.42416 10.017865 45.248515 9.610052 45.397712 8.6151391 L 45.426195 8.425035 L 45.941983 8.4364282 L 46.457852 8.4479028 L 46.458828 9.8229028 C 46.459438 10.695355 46.482686 11.456791 46.522386 11.906236 C 46.556794 12.295819 46.603197 13.02707 46.625577 13.531236 C 46.647966 14.035402 46.670965 14.485011 46.676765 14.530341 C 46.690061 14.634989 46.593373 14.651365 45.458096 14.736965 C 44.670263 14.796395 43.704161 14.823129 43.663011 14.786689 C 43.653462 14.778239 43.289977 14.75892 42.855313 14.74372 C 42.057018 14.715806 41.606954 14.666164 40.676846 14.503648 C 40.099818 14.402825 40.134632 14.440989 40.207282 13.989569 C 40.229413 13.85207 40.276071 13.298944 40.310961 12.760403 C 40.407797 11.265737 40.743227 8.4986375 40.838467 8.4086776 C 40.840596 8.4066676 40.860909 8.4053879 40.895759 8.4047713 z M 40.144457 8.4568546 C 40.129913 8.4572496 40.113784 8.4657993 40.096035 8.4835474 C 40.014248 8.5653348 39.874774 9.6176978 39.933194 9.7122257 C 39.985434 9.7967521 40.121741 9.7671169 40.14291 9.6666528 C 40.274627 9.0415827 40.26781 8.453505 40.144457 8.4568546 z M 47.020596 8.7395695 C 46.912583 8.7395695 46.822276 9.5427443 46.917406 9.6573755 C 47.057702 9.8264244 47.103929 9.717546 47.103929 9.2181665 C 47.103929 8.7673491 47.099096 8.7395695 47.020596 8.7395695 z M 44.494392 9.7732609 C 44.440135 9.7741971 44.392721 9.8000498 44.358161 9.8573267 C 44.320086 9.9204254 44.334078 9.9524707 44.439948 10.044827 C 45.332972 10.823863 44.156062 12.239569 43.138435 11.610419 C 42.665246 11.317866 42.62487 10.50647 43.061774 10.069566 C 43.285653 9.8456868 43.100791 9.715894 42.859626 9.9276392 C 42.181686 10.522879 42.3889 11.76401 43.207771 12.01317 L 43.207852 12.01317 C 44.149614 12.29959 45.081844 11.61829 45.089444 10.638007 C 45.092579 10.23328 44.729506 9.7692041 44.494392 9.7732609 z M 39.860196 14.758368 L 40.107022 14.820706 C 40.592166 14.943202 41.612057 15.097568 42.083096 15.119778 C 42.346638 15.132198 42.585519 15.149571 42.613939 15.158271 C 42.671029 15.17582 42.571342 15.337648 42.133959 15.937486 C 41.987745 16.138007 41.864909 16.301198 41.861009 16.300198 C 41.857113 16.299175 41.628929 16.175808 41.353929 16.026028 C 40.781406 15.7142 40.182387 15.436439 39.77849 15.295478 C 39.450579 15.181037 39.45796 15.207006 39.68181 14.957343 L 39.860196 14.758368 z M 46.951993 14.902004 L 47.118171 15.040025 C 47.209578 15.115952 47.353246 15.274003 47.437425 15.391181 C 47.62799 15.656433 47.630071 15.653934 46.999763 15.906155 C 46.736221 16.011612 46.333096 16.189356 46.103929 16.301093 C 45.486752 16.602013 45.523351 16.602685 45.418871 16.288723 C 45.32149 15.996094 45.158696 15.717825 44.911547 15.42178 L 44.750577 15.22899 L 44.880378 15.20303 C 44.951766 15.18875 45.127744 15.17707 45.27141 15.17707 C 45.724903 15.17707 46.362017 15.094295 46.662279 14.996405 L 46.951993 14.902004 z M 39.503425 15.593492 L 39.907884 15.765448 C 40.130307 15.860038 40.636484 16.103886 41.032722 16.307278 C 41.980946 16.794007 42.050329 16.786316 42.469164 16.148668 L 42.645596 15.880113 L 42.676765 16.093004 C 42.729018 16.44977 42.875287 16.641765 43.184333 16.759264 C 43.308617 16.806517 43.309976 16.871078 43.205085 17.74608 C 43.094843 18.665717 42.676804 19.593736 42.37281 19.593736 C 42.229579 19.593736 42.308317 19.002975 42.517829 18.505276 C 42.551812 18.424548 42.399359 18.23968 41.713467 17.529609 C 41.446968 17.253716 41.157643 16.939654 41.070563 16.831692 C 40.794422 16.489327 40.810676 16.47454 40.235521 17.593736 C 39.558179 18.911779 39.457962 19.289809 39.737556 19.472154 C 39.863043 19.553993 39.954774 19.693779 40.226732 20.217434 C 40.708809 21.145676 41.091108 21.48289 41.791592 21.597805 C 42.904735 21.780415 43.910292 21.093515 44.334398 19.860826 C 44.525473 19.305464 44.630398 17.530365 44.508389 16.917385 C 44.469496 16.721989 44.47051 16.719235 44.61988 16.608547 C 44.702783 16.547112 44.814137 16.443658 44.867357 16.378648 C 45.000756 16.215701 45.009319 16.221597 45.123379 16.556627 C 45.278033 17.01089 45.398673 17.026022 46.128669 16.682847 C 46.321303 16.59229 46.64768 16.448611 46.853929 16.363512 C 47.060179 16.278411 47.336175 16.154782 47.467292 16.088772 C 47.778357 15.932172 47.754293 15.927501 48.209968 16.23192 C 48.426645 16.376674 48.697679 16.549399 48.812263 16.615709 C 49.611787 17.078376 50.839252 17.984644 50.865892 18.131985 C 50.909551 18.373432 49.396876 20.195547 49.275804 20.047349 C 49.268552 20.038471 49.192863 19.796862 49.107673 19.510403 C 48.894836 18.794758 48.762594 18.587002 48.603767 18.718818 C 48.516369 18.79135 48.524823 18.852682 48.7378 19.697903 C 49.015248 20.798986 49.240165 21.978709 49.353522 22.92707 C 49.412419 23.419777 49.47073 23.851023 49.48308 23.885403 C 49.52909 24.013496 49.54387 25.358218 49.50253 25.655422 C 49.305021 27.075451 48.105694 28.126481 46.45834 28.323228 C 44.944964 28.503975 43.649373 28.35919 43.33041 27.9737 C 42.890716 27.442298 42.791647 24.795049 43.130948 22.643704 C 43.218452 22.088887 42.989037 22.102854 42.87167 22.659491 C 42.636724 23.773761 42.524329 24.91097 42.559089 25.822903 C 42.60902 27.132741 42.688317 27.675982 42.876716 28.000149 L 42.955492 28.135728 L 42.677497 28.261786 C 42.259534 28.4513 42.095377 28.498934 41.615323 28.570217 C 39.862237 28.830504 38.222854 28.364848 37.350023 27.358629 C 36.475892 26.350911 36.345543 25.618636 36.64877 23.419664 C 36.72574 22.861484 37.236848 21.347862 37.671963 20.389472 C 37.834236 20.032046 38.09728 19.422307 38.256517 19.034491 C 38.415755 18.646677 38.582471 18.278162 38.627041 18.215562 C 38.729699 18.071366 38.729728 18.010403 38.627123 18.010403 C 38.50607 18.010403 38.174289 18.538073 37.75611 19.395575 C 37.557818 19.802189 37.383676 20.130342 37.369066 20.124742 C 37.246378 20.077936 36.164455 18.780238 35.867845 18.324124 C 35.584099 17.887789 35.588846 17.910243 35.750576 17.774156 C 36.516002 17.130093 38.325701 16.05774 39.285896 15.679267 L 39.503425 15.593492 z M 42.986009 15.854722 C 43.024168 15.849831 43.10967 15.884698 43.284349 15.953925 C 43.892068 16.194771 44.181631 16.345217 44.132331 16.394517 C 44.106252 16.420597 43.929805 16.448304 43.740241 16.456204 C 43.230925 16.477341 43.030404 16.356779 42.971524 15.993964 C 42.956959 15.904213 42.947851 15.859614 42.986009 15.854722 z M 42.291836 18.470608 L 42.194099 18.667629 C 42.140338 18.775963 42.06368 18.986445 42.02377 19.135403 C 41.931994 19.477926 41.87736 19.606286 41.527595 20.299954 C 41.371014 20.61049 41.218238 20.89006 41.188158 20.92121 C 41.107248 21.00501 40.841305 20.713433 40.632412 20.311917 L 40.464606 19.989407 L 40.68059 19.737861 C 41.160896 19.178346 41.79889 18.658049 42.184659 18.511379 L 42.291836 18.470608 z M 35.450609 18.583238 C 35.497009 18.581535 35.536167 18.623537 35.587572 18.708564 C 35.639439 18.794356 35.830976 19.049935 36.01319 19.276435 C 36.264654 19.589015 36.330569 19.696179 36.286709 19.721259 C 36.058764 19.851625 35.503401 20.355278 35.396979 20.528144 C 35.119889 20.978229 35.210163 21.297363 35.902513 22.314114 C 36.284863 22.87562 36.29285 22.892144 36.25253 23.04328 C 36.229837 23.128333 36.171813 23.501172 36.123623 23.871812 C 36.075429 24.242454 36.023194 24.732842 36.007494 24.961575 L 35.978929 25.377428 L 35.828946 25.300279 C 35.55088 25.157274 35.210779 24.660544 35.275479 24.49193 C 35.296468 24.437232 35.329765 24.456906 35.445563 24.59219 C 35.757181 24.956247 35.90183 24.755875 35.639981 24.322903 C 35.556824 24.185403 35.360209 23.832622 35.20305 23.538967 C 35.045892 23.245313 34.853125 22.907812 34.774665 22.788967 C 34.542244 22.436916 33.825916 21.254758 33.722175 21.05207 C 33.394225 20.411319 33.442416 20.324041 34.749763 19.191718 C 34.990387 18.983307 35.224528 18.771182 35.270108 18.720282 C 35.350571 18.630416 35.404209 18.584941 35.450609 18.583238 z M 50.901862 19.000637 C 50.917146 19.000894 50.929992 19.014347 50.94597 19.0362 C 50.976624 19.078123 51.185368 19.300411 51.409756 19.530178 C 52.746689 20.899157 52.777006 21.387914 51.61516 22.836249 C 51.037866 23.555891 50.249763 24.79518 50.249763 24.983303 C 50.249763 25.250253 50.496127 25.127979 50.728929 24.74551 C 50.919881 24.431802 50.938111 24.42089 50.973721 24.598945 C 51.07786 25.119638 50.773785 25.709914 50.310716 25.885973 C 50.183381 25.934422 50.171697 25.934129 50.059984 25.879869 C 49.978344 25.840216 49.974201 25.801243 49.969001 25.033759 C 49.966001 24.591277 49.942683 24.077234 49.917243 23.891425 L 49.871019 23.553616 L 50.139818 23.146633 C 51.136343 21.637721 51.137488 21.415495 50.154548 20.400214 L 49.906745 20.144192 L 50.21656 19.831366 C 50.386957 19.659302 50.608261 19.392851 50.70834 19.239244 C 50.823104 19.063096 50.868238 19.000072 50.901862 19.000637 z M 36.55974 19.933254 L 36.873461 20.20954 C 37.046022 20.361482 37.193165 20.489383 37.200365 20.493883 C 37.207594 20.498336 37.158317 20.611665 37.090827 20.745754 C 37.023338 20.879844 36.862337 21.279665 36.73308 21.634182 C 36.603823 21.988698 36.484429 22.291713 36.467699 22.307603 C 36.423955 22.349132 35.742196 21.317032 35.693936 21.136217 C 35.62857 20.891323 35.684273 20.791799 36.133633 20.351142 L 36.55974 19.933254 z M 42.536465 20.057766 C 42.6344 20.0609 42.708961 20.124255 43.007006 20.420885 L 43.383308 20.795315 L 43.206143 20.923733 C 42.975649 21.090698 42.973291 21.090216 42.698493 20.828274 C 42.317157 20.464778 42.215619 20.086188 42.492357 20.059638 C 42.50802 20.058135 42.522475 20.057318 42.536465 20.057766 z M 49.56918 20.437323 C 49.620038 20.436319 49.669772 20.500006 49.795743 20.666653 C 49.895348 20.798424 50.085107 21.033853 50.217455 21.189846 C 50.527695 21.555516 50.526726 21.570684 50.146491 22.339098 C 49.853987 22.930232 49.791429 23.033281 49.791429 22.923733 C 49.791429 22.717165 49.633354 21.743471 49.514737 21.219469 L 49.368659 20.574449 L 49.459642 20.500719 C 49.507724 20.461784 49.538665 20.437926 49.56918 20.437323 z M 39.364753 46.646878 C 39.51987 46.642701 40.669173 46.710755 40.950121 46.742255 C 41.229935 46.773626 41.241855 46.895088 40.978929 47.036038 C 40.676066 47.198408 39.862289 47.197192 39.546556 47.033922 C 39.438276 46.977926 39.29518 46.701069 39.3475 46.648749 C 39.348452 46.647797 39.354412 46.647156 39.364753 46.646878 z M 45.555264 46.849189 C 45.917006 46.849252 45.95931 46.863677 45.94182 46.909247 C 45.92763 46.946214 45.904414 47.02299 45.890144 47.07982 C 45.87588 47.136652 45.818501 47.200497 45.762621 47.221747 C 45.639658 47.268497 44.756378 47.264952 44.512132 47.216702 C 44.240064 47.162961 44.159393 47.105603 44.174323 46.976386 L 44.187263 46.86457 L 45.077481 46.853339 C 45.278659 46.850794 45.434683 46.849167 45.555264 46.849189 z " /></g></g></svg>
