<?xml version="1.0" encoding="UTF-8" standalone="no"?>
<!-- Created with Inkscape (http://www.inkscape.org/) -->

<svg
   width="2.4908545in"
   height="2.9252672in"
   viewBox="0 0 9.963418 11.701069"
   version="1.1"
   id="svg658"
   xml:space="preserve"
   inkscape:version="1.2.2 (b0a8486541, 2022-12-01)"
   sodipodi:docname="wally.svg"
   inkscape:export-filename="wally.png"
   inkscape:export-xdpi="300"
   inkscape:export-ydpi="300"
   xmlns:inkscape="http://www.inkscape.org/namespaces/inkscape"
   xmlns:sodipodi="http://sodipodi.sourceforge.net/DTD/sodipodi-0.dtd"
   xmlns="http://www.w3.org/2000/svg"
   xmlns:svg="http://www.w3.org/2000/svg"><sodipodi:namedview
     id="namedview660"
     pagecolor="#ffffff"
     bordercolor="#000000"
     borderopacity="0.25"
     inkscape:showpageshadow="2"
     inkscape:pageopacity="0.0"
     inkscape:pagecheckerboard="0"
     inkscape:deskcolor="#d1d1d1"
     inkscape:document-units="in"
     showgrid="true"
     inkscape:zoom="1.829812"
     inkscape:cx="-153.84094"
     inkscape:cy="72.138558"
     inkscape:window-width="3790"
     inkscape:window-height="2111"
     inkscape:window-x="50"
     inkscape:window-y="0"
     inkscape:window-maximized="1"
     inkscape:current-layer="layer1"><inkscape:grid
       type="xygrid"
       id="grid779"
       units="in"
       spacingx="0.2"
       originx="-35.308757"
       originy="-7.6989312"
       spacingy="0.2" /></sodipodi:namedview><defs
     id="defs655" /><g
     inkscape:label="Layer 1"
     inkscape:groupmode="layer"
     id="layer1"
     transform="translate(-35.308759,-7.6989312)"><g
       id="g4184"
       style="fill:#ffffff"><path
         style="fill:#ffffff;fill-opacity:1;fill-rule:evenodd;stroke:none;stroke-width:0.111111;stroke-linecap:round;stroke-linejoin:bevel;stroke-opacity:1;paint-order:markers stroke fill"
         d="m 44.360189,12.378825 c -0.03673,9.95e-4 -0.09656,0.01639 -0.157715,0.04224 -0.287759,0.121689 -0.54503,0.166306 -0.81958,0.24235 -0.02174,0.006 -0.04363,0.01147 -0.06551,0.01693 -0.527642,0.131526 -1.014321,0.293723 -1.586263,0.38094 -0.561977,0.0857 -0.669515,0.06755 -0.669515,-0.113118 0,-0.196589 -0.08875,-0.231413 -0.224203,-0.08789 -0.06389,0.06769 -0.129626,0.123047 -0.145996,0.123047 -0.04085,0 -0.113739,0.221284 -0.171549,0.520833 -0.06351,0.3291 -0.121153,0.591489 -0.169434,0.770834 -0.04856,0.18037 -0.216887,1.218737 -0.310709,1.916666 -0.124653,0.927258 -0.06501,0.809716 -0.540691,1.065267 -0.229134,0.123099 -0.449222,0.22438 -0.489095,0.225098 -0.08731,0.0016 -0.406657,-0.651134 -0.406657,-0.831136 0,-0.06371 0.04517,-0.216518 0.100424,-0.3396 0.526073,-1.171862 1.023305,-2.376322 1.239095,-3.001465 0.118785,-0.344119 0.121569,-0.367017 0.05819,-0.489583 -0.06921,-0.133841 -0.123232,-0.160223 -0.170655,-0.0835 -0.01531,0.02477 -0.06952,0.03453 -0.120524,0.02173 -0.08003,-0.02009 -0.10787,0.0094 -0.202799,0.215413 -0.104026,0.225685 -0.243341,0.533519 -1.145101,2.530273 -0.42063,0.931396 -0.509062,1.215486 -0.507731,1.631023 0.0014,0.431428 0.174583,0.744823 0.482828,0.873616 0.271998,0.113648 0.432943,0.0556 0.432943,-0.156087 0,-0.162767 0.07772,-0.349932 0.125488,-0.302165 0.02434,0.02434 0.02134,0.097 -0.008,0.192627 -0.132605,0.43207 0.166953,0.63104 1.21582,0.807373 0.742614,0.124846 1.522644,0.160383 2.229167,0.101644 v 8.1e-5 c 0.252083,-0.02096 0.491033,-0.05079 0.531006,-0.06624 0.09707,-0.03751 0.0513,-0.102702 -0.0721,-0.102702 -0.136801,0 -0.283566,-0.193427 -0.251465,-0.331462 0.01355,-0.05828 0.07113,-0.143538 0.12793,-0.189371 0.0568,-0.04583 0.14854,-0.120834 0.203857,-0.166667 l 0.100586,-0.08333 0.0284,-1.232015 c 0.03199,-1.385609 0.03467,-1.37161 -0.264974,-1.372722 -0.307122,-0.0011 -0.340781,-0.02724 -0.340657,-0.264648 1.25e-4,-0.224564 0.224033,-1.183831 0.292236,-1.252035 0.07648,-0.07648 0.09252,0.01533 0.03003,0.171794 -0.09335,0.23372 -0.255815,1.137007 -0.212321,1.180501 0.083,0.083 1.346947,0.228839 1.623698,0.187338 l 0.193034,-0.02897 -0.0293,-0.298746 c -0.01613,-0.164325 -0.07465,-0.490798 -0.130045,-0.725505 -0.0554,-0.234707 -0.100749,-0.445645 -0.100749,-0.46875 0,-0.08217 0.08207,-0.04049 0.101725,0.05168 0.011,0.05156 0.05832,0.262501 0.105143,0.46875 0.103794,0.457195 0.163745,0.960523 0.122396,1.027426 -0.01679,0.02716 -0.111645,0.06024 -0.210775,0.07349 -0.158866,0.02125 -0.183408,0.03891 -0.206949,0.149088 -0.01469,0.06875 -0.02887,0.598438 -0.03158,1.177084 -0.0047,1.000057 -8.39e-4,1.056204 0.07837,1.135416 0.04583,0.04583 0.101464,0.08333 0.123617,0.08333 0.02215,0 0.105398,0.06511 0.184977,0.144694 l 0.144694,0.144694 0.173747,-0.196778 c 0.194632,-0.220422 0.350984,-0.510866 0.442382,-0.821777 0.08573,-0.291642 0.119094,-1.290016 0.05851,-1.75 -0.09376,-0.711944 -0.624722,-2.760822 -0.753906,-2.909098 -0.0051,-0.0059 -0.01708,-0.0083 -0.03377,-0.0079 z"
         id="path4159"
         sodipodi:nodetypes="ccaasssssssscsssssscscssscsccssssscccsssscccssssscscssscsssccc" /><path
         style="fill:#ffffff;fill-opacity:1;fill-rule:evenodd;stroke:#ffffff;stroke-width:0.111111;stroke-linecap:round;stroke-linejoin:bevel;stroke-opacity:1;paint-order:markers stroke fill"
         d="m 39.86084,12.122396 c -0.03156,-2.93e-4 -0.05669,0.02236 -0.09758,0.07479 -0.09308,0.119382 -0.135818,0.263735 -0.103272,0.348552 0.04393,0.114469 0.129513,0.0637 0.244711,-0.145183 l 0.113932,-0.206624 -0.08919,-0.04777 c -0.02843,-0.01522 -0.04967,-0.02359 -0.0686,-0.02376 z"
         id="path4155" /><path
         style="fill:#ffffff;fill-opacity:1;fill-rule:evenodd;stroke:#ffffff;stroke-width:0.111111;stroke-linecap:round;stroke-linejoin:bevel;stroke-opacity:1;paint-order:markers stroke fill"
         d="m 44.31901,11.831624 c -0.06056,-4e-5 -0.230001,0.03525 -0.408121,0.0861 -0.771212,0.220175 -1.519664,0.340387 -2.380534,0.382405 -0.44257,0.0216 -0.59375,0.04272 -0.59375,0.08285 0,0.02961 0.01823,0.06507 0.04053,0.07886 0.07747,0.04788 0.189421,0.339024 0.20638,0.536784 0.0042,0.04854 0.471603,-7.84e-4 0.982259,-0.103679 0.229166,-0.04618 0.632292,-0.140988 0.895834,-0.210693 0.263541,-0.0697 0.535416,-0.14141 0.604166,-0.159261 0.123748,-0.03213 0.331851,-0.115495 0.59375,-0.237875 0.122791,-0.05738 0.135417,-0.08042 0.135417,-0.247314 0,-0.117223 -0.0207,-0.191971 -0.05697,-0.205892 -0.0039,-0.0015 -0.01031,-0.0023 -0.01896,-0.0023 z"
         id="path4153" /></g><path
       id="path906"
       style="fill:#9dba40;fill-opacity:1;fill-rule:evenodd;stroke:none;stroke-width:0.111111;stroke-linecap:round;stroke-linejoin:bevel;stroke-opacity:1;paint-order:markers stroke fill"
       d="m 40.278971,12.248617 c -0.11776,0.0053 -0.263404,0.386526 -0.183756,0.513916 0.08646,0.138284 0.492743,0.152389 0.642415,0.0223 0.118644,-0.103125 0.127918,-0.209233 0.0319,-0.364584 -0.07726,-0.124999 -0.111974,-0.145263 -0.249593,-0.145263 -0.08792,0 -0.186786,-0.01026 -0.219645,-0.02287 -0.0056,-0.0022 -0.01135,-0.0033 -0.01717,-0.0035 -0.0014,-4.5e-5 -0.0028,-6.3e-5 -0.0042,0 z m 0.162028,0.779052 c -0.02643,-9.8e-5 -0.0621,0.0023 -0.109619,0.0055 l -0.191406,0.01269 -0.103597,0.3125 c -0.05696,0.171875 -0.140179,0.392032 -0.184977,0.489177 -0.0448,0.09715 -0.08146,0.192372 -0.08146,0.211588 0,0.0505 -0.204044,0.552616 -0.417887,1.028402 -0.101072,0.224877 -0.226765,0.510439 -0.302572,0.6875 -0.03434,0.08021 -0.09995,0.230209 -0.145833,0.333333 -0.224548,0.504739 -0.222243,0.494423 -0.153239,0.697673 0.07055,0.207803 0.262143,0.553623 0.304769,0.55013 0.01501,-0.0012 0.196013,-0.09157 0.402262,-0.200765 l 0.375,-0.198568 0.0345,-0.288818 c 0.05457,-0.457193 0.152396,-1.146635 0.191814,-1.351318 0.01986,-0.103125 0.05606,-0.290626 0.08049,-0.416667 0.03861,-0.199383 0.133285,-0.694538 0.254801,-1.333333 0.01962,-0.103125 0.04503,-0.215625 0.05648,-0.25 0.01145,-0.03438 0.03234,-0.115055 0.04647,-0.179362 0.01914,-0.08711 0.02332,-0.109325 -0.05599,-0.109619 z"
       inkscape:label="tie" /><g
       id="g4936"
       inkscape:label="skin"><path
         style="fill:#f5d6a8;fill-opacity:1;fill-rule:evenodd;stroke:none;stroke-width:0.111111;stroke-linecap:round;stroke-linejoin:bevel;stroke-opacity:1;paint-order:markers stroke fill"
         d="m 44.019613,8.759847 c -0.06407,0.00129 -0.127472,0.017561 -0.17155,0.048421 -0.07774,0.05445 -0.208729,0.068237 -0.660482,0.069417 l -0.563476,0.00155 0.01237,0.5087077 c 0.01945,0.8009943 -0.0042,0.8220343 -0.896485,0.7969563 -0.344257,-0.0097 -0.520535,-0.03177 -0.567952,-0.07121 -0.05718,-0.04756 -0.06888,-0.1457714 -0.06942,-0.583333 -3.33e-4,-0.2893817 -0.01755,-0.5527869 -0.03817,-0.5853678 -0.05278,-0.0834 -0.611046,-0.077449 -0.775879,0.0083 C 40.047977,9.078403 39.8116,9.4459199 39.8116,9.6948246 c 0,0.2750277 0.325622,0.6219074 0.583821,0.6219074 0.11439,0 0.210326,0.04558 0.184327,0.08765 -0.01268,0.02051 -0.08397,0.03735 -0.158366,0.03735 h -0.135254 l -0.09204,0.46875 c -0.173737,0.884988 -0.214644,1.129675 -0.192709,1.151611 0.125746,0.125746 1.756909,0.169999 2.453451,0.06657 v -8.1e-5 c 0.604154,-0.08971 1.388193,-0.269765 1.700521,-0.390544 0.13799,-0.05336 0.137103,-0.0362 0.05233,-1.06722 -0.03392,-0.4125 -0.06186,-0.7546862 -0.06217,-0.7604162 -2.93e-4,-0.0057 -0.02401,-0.010469 -0.05265,-0.010579 -0.07812,-3.13e-4 -0.306763,-0.1959457 -0.271078,-0.2319336 0.01705,-0.01719 0.06538,-1.278e-4 0.107422,0.037923 0.09802,0.08871 0.326745,0.089106 0.415121,7.325e-4 0.100842,-0.1008399 0.08942,-0.4518373 -0.02246,-0.6898601 -0.05001,-0.1063989 -0.106942,-0.2033464 -0.126465,-0.2154134 -0.04698,-0.02903 -0.111712,-0.042715 -0.175781,-0.041422 z"
         id="path3948" /><path
         style="fill:#f5d6a8;fill-opacity:1;fill-rule:evenodd;stroke:none;stroke-width:0.111111;stroke-linecap:round;stroke-linejoin:bevel;stroke-opacity:1;paint-order:markers stroke fill"
         d="m 35.483805,15.285563 c -0.0504,0.0024 -0.09136,0.142765 -0.0603,0.223714 0.03409,0.08883 0.145489,-0.01698 0.12972,-0.123209 -0.0068,-0.04604 -0.03352,-0.09058 -0.05925,-0.09904 -0.0034,-0.0011 -0.0068,-0.0016 -0.01017,-0.0015 z"
         id="path3984" /><path
         style="fill:#f5d6a8;fill-opacity:1;fill-rule:evenodd;stroke:none;stroke-width:0.111111;stroke-linecap:round;stroke-linejoin:bevel;stroke-opacity:1;paint-order:markers stroke fill"
         d="m 43.103271,15.19165 v 1.202149 c 0,0.754213 -0.01682,1.250292 -0.04508,1.33138 -0.02925,0.08391 -0.109637,0.167093 -0.229167,0.237142 -0.134348,0.07873 -0.184082,0.134153 -0.184082,0.205159 0,0.126573 0.08035,0.190081 0.2264,0.178956 0.10197,-0.0078 0.124819,0.01259 0.175374,0.155924 0.05644,0.16001 0.204916,0.355957 0.269694,0.355957 0.01757,0 0.04334,-0.01832 0.05721,-0.04077 0.01388,-0.02245 -0.0038,-0.126242 -0.03923,-0.230632 -0.07484,-0.220447 -0.07588,-0.228597 -0.02938,-0.228597 0.01927,0 0.08608,0.09375 0.148438,0.208333 0.168643,0.309852 0.325232,0.27855 0.211995,-0.0424 -0.09568,-0.271198 -0.07433,-0.320181 0.05916,-0.135905 0.06673,0.09211 0.17067,0.179835 0.231039,0.194987 0.212778,0.0534 0.22256,-0.04323 0.03027,-0.299072 -0.123269,-0.164015 -0.09097,-0.218495 0.07227,-0.12207 0.103072,0.06089 0.125604,0.06227 0.168782,0.01025 0.08052,-0.09703 0.03168,-0.204797 -0.126709,-0.279379 -0.274885,-0.129433 -0.267822,-0.09164 -0.267822,-1.426106 v -1.211019 l -0.166667,-0.0297 c -0.09167,-0.01635 -0.255728,-0.03083 -0.364583,-0.03214 z"
         id="path3982" /><path
         style="fill:#f5d6a8;fill-opacity:1;fill-rule:evenodd;stroke:none;stroke-width:0.111111;stroke-linecap:round;stroke-linejoin:bevel;stroke-opacity:1;paint-order:markers stroke fill"
         d="m 35.522705,14.774984 c -0.09185,0 -0.146047,0.126763 -0.106934,0.25 0.03159,0.09954 0.126724,0.109795 0.162191,0.0175 0.05388,-0.140498 0.02768,-0.267496 -0.05526,-0.267496 z"
         id="path3980" /><path
         style="fill:#f5d6a8;fill-opacity:1;fill-rule:evenodd;stroke:none;stroke-width:0.111111;stroke-linecap:round;stroke-linejoin:bevel;stroke-opacity:1;paint-order:markers stroke fill"
         d="m 37.178467,14.272705 c -0.157008,-0.0035 -0.366862,0.254094 -0.366862,0.548014 0,0.251763 0.212021,0.173962 0.266601,-0.09782 0.02633,-0.131114 0.108399,-0.155819 0.108399,-0.03263 0,0.09701 -0.127032,0.376383 -0.171143,0.376383 -0.05469,0 -0.132717,0.296153 -0.08944,0.339437 0.02914,0.02914 0.943625,0.247681 1.177246,0.281332 0.01146,0.0017 0.0402,-0.01075 0.06388,-0.02759 0.04745,-0.03374 0.269721,-0.5444 0.269531,-0.619222 -6.5e-5,-0.02582 -0.173519,-0.08776 -0.385498,-0.137614 -0.707792,-0.166458 -0.684865,-0.156985 -0.688558,-0.284099 -0.0018,-0.06308 -0.02295,-0.166308 -0.04696,-0.229329 -0.03054,-0.08019 -0.08042,-0.115601 -0.137207,-0.116862 z"
         id="path3978" /><path
         style="fill:#f5d6a8;fill-opacity:1;fill-rule:evenodd;stroke:none;stroke-width:0.111111;stroke-linecap:round;stroke-linejoin:bevel;stroke-opacity:1;paint-order:markers stroke fill"
         d="m 35.562174,14.239502 c -0.01605,1.3e-4 -0.03369,0.01107 -0.05859,0.03174 -0.07923,0.06575 -0.08954,0.279749 -0.01489,0.308594 0.04912,0.01898 0.197793,-0.113586 0.197917,-0.176432 -7.7e-5,-0.01607 -0.02618,-0.06485 -0.05802,-0.108399 -0.02771,-0.0379 -0.04576,-0.05567 -0.06641,-0.0555 z"
         id="path3976" /><path
         style="fill:#f5d6a8;fill-opacity:1;fill-rule:evenodd;stroke:none;stroke-width:0.111111;stroke-linecap:round;stroke-linejoin:bevel;stroke-opacity:1;paint-order:markers stroke fill"
         d="m 35.662191,13.69165 c -0.104247,0 -0.190955,0.184356 -0.144369,0.306885 0.05178,0.13619 0.105979,0.139099 0.190511,0.01009 0.07449,-0.113679 0.0449,-0.316976 -0.04614,-0.316976 z"
         id="path3970" /><path
         style="fill:#f5d6a8;fill-opacity:1;fill-rule:evenodd;stroke:none;stroke-width:0.111111;stroke-linecap:round;stroke-linejoin:bevel;stroke-opacity:1;paint-order:markers stroke fill"
         d="m 42.218913,7.7845866 c -0.109452,6.544e-4 -0.215755,0.00984 -0.315593,0.028239 -0.435665,0.080275 -0.852526,0.3060959 -1.053222,0.5705567 -0.168714,0.2223167 -0.145906,0.2430965 0.29484,0.2693685 0.724054,0.04316 2.679139,0.022454 2.696126,-0.028564 0.02883,-0.08659 -0.260423,-0.4107027 -0.488932,-0.5478516 -0.312103,-0.1873201 -0.74232,-0.2940851 -1.133219,-0.2917486 z"
         id="path3946" /></g><path
       style="fill:#ffffff;fill-opacity:1;fill-rule:evenodd;stroke:none;stroke-width:0.111111;stroke-linecap:round;stroke-linejoin:bevel;stroke-opacity:1;paint-order:markers stroke fill"
       d="m 41.257812,14.178467 c -0.08833,0.0021 -0.09634,0.02984 -0.123209,0.138183 -0.01989,0.08021 -0.06194,0.239584 -0.09351,0.354167 -0.09591,0.348005 -0.116453,0.587393 -0.06405,0.746175 0.05263,0.159482 0.209942,0.296153 0.37679,0.327311 0.05699,0.01064 0.110078,0.02194 0.118001,0.02506 0.0079,0.0031 0.06531,-0.02445 0.127523,-0.0612 0.173221,-0.102324 0.32441,-0.378488 0.432211,-0.78947 0.14638,-0.558069 0.144552,-0.564778 -0.178305,-0.651204 -0.148958,-0.03988 -0.363448,-0.07791 -0.476643,-0.08455 -0.05097,-0.003 -0.08937,-0.0052 -0.118816,-0.0045 z"
       id="path4169"
       inkscape:label="pocket" /><path
       style="fill:#ffffff;fill-opacity:1;fill-rule:evenodd;stroke:none;stroke-width:0.111111;stroke-linecap:round;stroke-linejoin:bevel;stroke-opacity:1;paint-order:markers stroke fill"
       d="m 35.799561,13.497233 c -0.106466,-1.22e-4 -0.120907,0.04932 -0.02865,0.132813 0.09343,0.08455 0.110081,0.306966 0.03369,0.449707 -0.02675,0.04999 -0.04476,0.175388 -0.04004,0.278727 0.005,0.109597 -0.01617,0.221712 -0.05078,0.269043 -0.04383,0.05994 -0.04826,0.10534 -0.01709,0.173747 0.02489,0.05463 0.02802,0.140874 0.0077,0.210286 -0.01891,0.06471 -0.03586,0.234373 -0.03768,0.377034 l -0.0033,0.259359 0.209472,0.04175 c 0.718633,0.143135 0.740973,0.144515 0.800375,0.0494 0.08655,-0.138595 0.152244,-0.56841 0.1014,-0.663411 -0.1365,-0.255054 -0.01299,-0.710425 0.23413,-0.8632 0.142104,-0.08785 0.268137,-0.367321 0.19515,-0.43278 -0.03282,-0.02944 -0.839981,-0.1976 -1.316243,-0.274252 -0.03419,-0.0055 -0.06365,-0.0082 -0.08822,-0.0082 z"
       id="path4163"
       inkscape:label="cup" /><g
       id="g5131"
       inkscape:label="glasses"><path
         style="fill:#ffffff;fill-opacity:1;fill-rule:evenodd;stroke:none;stroke-width:0.111111;stroke-linecap:round;stroke-linejoin:bevel;stroke-opacity:1;paint-order:markers stroke fill"
         d="m 39.624105,8.8791504 -0.03076,0.4791667 c -0.03277,0.5105264 -0.02492,0.5833333 0.06307,0.5833333 0.03871,0 0.05597,-0.060591 0.05631,-0.1979167 5.86e-4,-0.2321627 0.103613,-0.4773768 0.279785,-0.6660156 0.06924,-0.07414 0.112314,-0.1483517 0.0957,-0.1649577 -0.01661,-0.01661 -0.127824,-0.030981 -0.247152,-0.031901 z"
         id="path5069" /><path
         style="fill:#ffffff;fill-opacity:1;fill-rule:evenodd;stroke:none;stroke-width:0.111111;stroke-linecap:round;stroke-linejoin:bevel;stroke-opacity:1;paint-order:markers stroke fill"
         d="m 42.130452,8.8649902 c -0.260545,2.796e-4 -0.741924,0.034045 -0.789143,0.063232 -0.05045,0.03118 -0.02114,1.0277164 0.03133,1.0649414 0.02373,0.01684 0.25341,0.0309 0.510417,0.03125 0.435284,5.94e-4 0.470566,-0.0055 0.515055,-0.088623 0.03316,-0.06197 0.0387,-0.2339575 0.01815,-0.5627441 -0.02869,-0.4591446 -0.03273,-0.4742708 -0.133301,-0.4995117 -0.02395,-0.00601 -0.07955,-0.00862 -0.152507,-0.00854 z"
         id="path5065"
         inkscape:label="path5065" /></g><path
       style="fill:#2f2c23;stroke-width:1"
       d="m 38.907697,18.893136 c 0.02157,-0.428993 0.01484,-0.524898 -0.04378,-0.624137 -0.06113,-0.103477 -0.0869,-0.114437 -0.219342,-0.09326 -0.304481,0.04869 -0.735843,-0.270375 -0.835547,-0.618026 -0.0769,-0.268147 -0.04598,-0.776381 0.0703,-1.155344 0.06017,-0.196086 0.12579,-0.374333 0.145833,-0.396104 0.02004,-0.02177 0.03644,-0.08138 0.03644,-0.132463 0,-0.0798 -0.03373,-0.09954 -0.239583,-0.140214 -0.131771,-0.02603 -0.348911,-0.07424 -0.482532,-0.107121 -0.400222,-0.09849 -0.471538,-0.0855 -0.529687,0.09646 -0.02746,0.08594 -0.06359,0.171239 -0.08029,0.189559 -0.03011,0.03304 -0.887958,-0.09853 -1.167909,-0.179124 -0.228552,-0.0658 -0.259063,-0.09942 -0.250371,-0.275885 0.0044,-0.0889 0.0051,-0.217883 0.0017,-0.286633 -0.0073,-0.145517 -0.0063,-0.191453 0.01343,-0.587848 0.0081,-0.162899 0.03004,-0.320969 0.04876,-0.351264 0.01872,-0.0303 0.03003,-0.143043 0.02512,-0.250548 -0.0071,-0.156578 0.01217,-0.220522 0.09706,-0.321417 0.05829,-0.06927 0.105982,-0.154952 0.105982,-0.190395 0,-0.03544 0.01557,-0.07407 0.0346,-0.08583 0.06128,-0.03787 1.639412,0.259925 1.700344,0.320857 0.01268,0.01268 0.004,0.112391 -0.01928,0.221577 -0.03683,0.172669 -0.03186,0.211847 0.03818,0.300876 0.04428,0.0563 0.09204,0.174457 0.106135,0.262578 0.02813,0.175903 0.0088,0.16608 0.59836,0.30422 0.457367,0.107168 0.457893,0.106952 0.633252,-0.25931 0.08475,-0.177007 0.246309,-0.528081 0.359026,-0.780165 0.112716,-0.252083 0.251713,-0.561458 0.308881,-0.6875 0.173565,-0.382673 0.190962,-0.439092 0.169695,-0.550343 -0.02244,-0.117371 0.05686,-0.269265 0.248615,-0.476222 0.123935,-0.13376 0.184033,-0.382245 0.324595,-1.342079 0.05593,-0.381915 0.01648,-0.441203 -0.319904,-0.480738 -0.357948,-0.04207 -0.463574,-0.114067 -0.497301,-0.338975 -0.03465,-0.231088 0.01679,-1.053728 0.07245,-1.158619 0.03667,-0.0691 0.09265,-0.07488 0.605441,-0.0625 0.518584,0.01252 0.568845,0.0071 0.611391,-0.06529 0.212488,-0.361827 0.542613,-0.641755 0.935412,-0.7931787 0.118486,-0.045677 0.357301,-0.083138 0.612158,-0.096025 0.764003,-0.038633 1.417073,0.2212437 1.737675,0.6914717 l 0.06704,0.09833 0.250708,-0.154746 c 0.32563,-0.20099 0.43302,-0.167562 0.122992,0.03828 -0.278618,0.184992 -0.349086,0.294928 -0.162824,0.254018 0.06649,-0.0146 0.19231,-0.06296 0.279603,-0.107468 0.167,-0.08514 0.307758,-0.105634 0.307758,-0.04481 0,0.01986 -0.09375,0.07507 -0.208333,0.122691 -0.23905,0.09935 -0.287897,0.20284 -0.07292,0.154495 0.07448,-0.01675 0.180052,-0.0405 0.234605,-0.05277 0.156174,-0.03514 0.0883,0.07595 -0.07969,0.130437 -0.08232,0.0267 -0.149721,0.0791 -0.158124,0.122917 -0.01331,0.06939 0.0067,0.07372 0.218242,0.04728 0.275196,-0.03438 0.316066,0.0294 0.05581,0.08709 -0.171294,0.03797 -0.177211,0.0447 -0.180973,0.205919 -0.0074,0.317707 -0.01759,0.352 -0.148736,0.50137 l -0.131792,0.150102 0.05255,0.778431 c 0.0289,0.428137 0.07854,0.85343 0.1103,0.945097 0.03176,0.09167 0.06924,0.288542 0.08329,0.4375 0.01404,0.148958 0.06127,0.370131 0.104955,0.491494 0.100905,0.280344 0.509937,1.916364 0.595916,2.383506 0.07548,0.410122 0.09387,1.57626 0.02989,1.895833 -0.117864,0.588712 -0.466558,1.153204 -0.864127,1.398915 -0.11541,0.07133 -0.142252,0.11065 -0.124315,0.182118 0.03518,0.140155 -0.08109,0.273134 -0.238802,0.273134 -0.08265,0 -0.161623,0.03202 -0.205563,0.08333 C 43.761227,18.8625 43.680374,18.9 43.620803,18.9 c -0.147277,0 -0.26441,0.151303 -0.266117,0.34375 L 43.353286,19.4 h -2.235522 -2.235527 z m 4.465883,-0.07561 c 0.01388,-0.02245 -0.0038,-0.126233 -0.03921,-0.230623 -0.07484,-0.220447 -0.07589,-0.228553 -0.02939,-0.228553 0.01927,0 0.08607,0.09375 0.148432,0.208333 0.168644,0.309852 0.32531,0.278479 0.212073,-0.04247 -0.09568,-0.271199 -0.07439,-0.320167 0.0591,-0.13589 0.06673,0.09211 0.170713,0.179874 0.231082,0.195026 0.212778,0.0534 0.222557,-0.04321 0.03027,-0.299052 -0.123269,-0.164015 -0.09103,-0.218542 0.07221,-0.122117 0.103072,0.06089 0.125648,0.06225 0.168826,0.01023 0.08052,-0.09703 0.03164,-0.204758 -0.126753,-0.27934 -0.274886,-0.129434 -0.267786,-0.09163 -0.267786,-1.426095 v -1.211029 l -0.166667,-0.02973 c -0.09167,-0.01635 -0.255729,-0.03081 -0.364584,-0.03213 l -0.197916,-0.0024 v 1.202116 c 0,0.754214 -0.01679,1.250272 -0.04505,1.33136 -0.02925,0.08391 -0.109636,0.167091 -0.229166,0.23714 -0.134348,0.07873 -0.184112,0.134199 -0.184112,0.205206 0,0.126573 0.08033,0.190068 0.22638,0.178943 0.10197,-0.0078 0.124835,0.01255 0.17539,0.155885 0.05644,0.16001 0.204923,0.356017 0.269701,0.356017 0.01757,0 0.0433,-0.01837 0.05717,-0.04082 z m -1.041147,-0.165304 c 0.252083,-0.02096 0.491038,-0.05074 0.531011,-0.06619 0.09707,-0.03751 0.05129,-0.102684 -0.07211,-0.102684 -0.136801,0 -0.283565,-0.193495 -0.251464,-0.33153 0.01355,-0.05828 0.07112,-0.14347 0.127917,-0.189303 0.0568,-0.04583 0.148533,-0.120834 0.20385,-0.166667 l 0.100574,-0.08333 0.02844,-1.232024 c 0.03199,-1.38561 0.0347,-1.3716 -0.264946,-1.372712 -0.307122,-0.0011 -0.340786,-0.0273 -0.340662,-0.264707 1.25e-4,-0.224564 0.223971,-1.183806 0.292174,-1.25201 0.07648,-0.07648 0.09254,0.01534 0.03005,0.171807 -0.09335,0.23372 -0.255805,1.137007 -0.212311,1.180501 0.083,0.083 1.346972,0.228804 1.623723,0.187303 l 0.193036,-0.02895 -0.02933,-0.298771 c -0.01613,-0.164325 -0.07466,-0.490806 -0.130058,-0.725513 -0.0554,-0.234707 -0.100721,-0.445645 -0.100721,-0.46875 0,-0.08217 0.08208,-0.04043 0.101736,0.05174 0.011,0.05156 0.0583,0.2625 0.105125,0.46875 0.103794,0.457195 0.163762,0.960498 0.122413,1.027401 -0.01679,0.02716 -0.111631,0.06024 -0.210761,0.07349 -0.158867,0.02125 -0.183404,0.03893 -0.206945,0.149105 -0.01469,0.06875 -0.02893,0.598438 -0.03164,1.177084 -0.0047,1.000058 -8.08e-4,1.056204 0.0784,1.135416 0.04583,0.04583 0.101458,0.08333 0.123611,0.08333 0.02215,0 0.105388,0.06511 0.184967,0.144689 l 0.144688,0.144688 0.173749,-0.196772 c 0.194633,-0.220423 0.350985,-0.510861 0.442384,-0.821772 0.08573,-0.291642 0.119151,-1.290016 0.05857,-1.75 -0.09376,-0.711945 -0.624776,-2.760824 -0.753961,-2.9091 -0.01634,-0.01876 -0.10249,-0.0033 -0.191443,0.0343 -0.287759,0.121689 -0.54504,0.166295 -0.819584,0.242378 -0.02175,0.006 -0.04366,0.0115 -0.06556,0.01696 -0.527612,0.131581 -1.014283,0.293676 -1.586226,0.380893 -0.561977,0.0857 -0.669532,0.06752 -0.669532,-0.113151 0,-0.196589 -0.08878,-0.231372 -0.224233,-0.08785 -0.06389,0.06769 -0.129559,0.123076 -0.145929,0.123076 -0.04085,0 -0.11373,0.221283 -0.17154,0.520833 -0.06351,0.3291 -0.121205,0.591489 -0.169486,0.770834 -0.04856,0.18037 -0.216886,1.218736 -0.310709,1.916666 -0.124653,0.927259 -0.06498,0.809687 -0.540661,1.065239 -0.229135,0.123099 -0.449232,0.224404 -0.489105,0.225122 -0.08731,0.0016 -0.406671,-0.651127 -0.406671,-0.831129 0,-0.06371 0.04521,-0.216531 0.100462,-0.339613 0.526074,-1.171863 1.023311,-2.376313 1.239101,-3.001456 0.118785,-0.34412 0.121503,-0.367017 0.05812,-0.489583 -0.06921,-0.133841 -0.123182,-0.160267 -0.170605,-0.08354 -0.01531,0.02477 -0.06957,0.03457 -0.120573,0.02177 -0.08003,-0.02009 -0.10781,0.0094 -0.202739,0.215374 -0.104026,0.225685 -0.243358,0.533559 -1.145119,2.530315 -0.42063,0.931397 -0.509065,1.215478 -0.507734,1.631015 0.0014,0.431429 0.174569,0.744784 0.482815,0.873577 0.271998,0.113648 0.432937,0.05564 0.432937,-0.156046 0,-0.162767 0.07775,-0.349958 0.125521,-0.302191 0.02434,0.02434 0.02131,0.09703 -0.008,0.192662 -0.132605,0.43207 0.166984,0.630999 1.215853,0.807332 0.742614,0.124846 1.522643,0.160429 2.229167,0.10169 z m -1.220305,-2.882984 c -0.276905,-0.177311 -0.318044,-0.434369 -0.174184,-1.088412 0.13551,-0.616097 0.157247,-0.66687 0.273044,-0.637807 0.08399,0.02108 0.109718,0.0011 0.169726,-0.131994 l 0.07073,-0.156842 0.02383,0.165294 c 0.02085,0.144661 0.0416,0.170366 0.166177,0.205931 0.124938,0.03567 0.149762,0.02947 0.202997,-0.05071 0.07829,-0.117905 0.135533,-0.116786 0.122915,0.0024 -0.0078,0.07346 0.01939,0.10238 0.125492,0.133617 0.154516,0.04549 0.163715,0.0959 0.09208,0.504564 -0.07953,0.453674 -0.213793,0.775117 -0.40348,0.965986 -0.15277,0.153723 -0.199492,0.176991 -0.354166,0.176381 -0.108971,-4.29e-4 -0.231383,-0.03477 -0.315152,-0.08841 z m 0.48723,-0.06104 c 0.173221,-0.102324 0.324422,-0.378505 0.432223,-0.789487 0.146381,-0.55807 0.144543,-0.564779 -0.178314,-0.651205 -0.148959,-0.03988 -0.363449,-0.07794 -0.476645,-0.08458 -0.203873,-0.01196 -0.20615,-0.0107 -0.24198,0.133755 -0.01989,0.08021 -0.06201,0.239584 -0.09358,0.354167 -0.09591,0.348005 -0.116457,0.587393 -0.06405,0.746175 0.05263,0.159482 0.20996,0.296135 0.376808,0.327293 0.05699,0.01064 0.110103,0.0219 0.118026,0.02502 0.0079,0.0031 0.06531,-0.02439 0.127521,-0.06114 z m -2.141925,1.447141 0.375,-0.198538 0.03447,-0.288809 c 0.05457,-0.457194 0.152471,-1.146626 0.191889,-1.351309 0.01986,-0.103125 0.05608,-0.290625 0.08049,-0.416666 0.03861,-0.199383 0.133205,-0.694538 0.254721,-1.333334 0.01962,-0.103125 0.04504,-0.215625 0.05649,-0.25 0.01145,-0.03438 0.03238,-0.115115 0.04651,-0.179422 0.02552,-0.116146 0.02442,-0.116838 -0.165663,-0.104167 l -0.191358,0.01276 -0.103572,0.3125 c -0.05696,0.171875 -0.140226,0.391983 -0.185024,0.489129 -0.0448,0.09715 -0.08145,0.192351 -0.08145,0.211567 0,0.0505 -0.204048,0.552684 -0.417891,1.028471 -0.101072,0.224878 -0.226736,0.510439 -0.302543,0.6875 -0.03434,0.08021 -0.09997,0.230208 -0.145851,0.333333 -0.224548,0.504739 -0.222267,0.494358 -0.153263,0.697608 0.07055,0.207804 0.262132,0.553649 0.304758,0.550156 0.01501,-0.0012 0.196041,-0.09158 0.40229,-0.200775 z m -2.784079,-1.416262 c 0.08655,-0.138595 0.152255,-0.568364 0.101411,-0.663366 -0.1365,-0.255054 -0.01299,-0.710419 0.234129,-0.863194 0.142104,-0.08785 0.268106,-0.36735 0.195119,-0.432809 -0.03282,-0.02944 -0.839984,-0.197638 -1.316247,-0.27429 -0.182368,-0.02935 -0.230402,0.02189 -0.11685,0.124655 0.09343,0.08455 0.1101,0.306905 0.03371,0.449646 -0.02675,0.04999 -0.04479,0.175441 -0.04007,0.27878 0.005,0.109597 -0.01615,0.221701 -0.05076,0.269032 -0.04383,0.05994 -0.04831,0.105335 -0.01714,0.173742 0.02489,0.05463 0.02809,0.140843 0.0078,0.210255 -0.01891,0.06471 -0.03588,0.234378 -0.0377,0.37704 l -0.0033,0.259384 0.209493,0.04173 c 0.718633,0.143135 0.741011,0.144517 0.800413,0.0494 z m 1.493799,-0.07928 c 0.04745,-0.03374 0.269757,-0.544403 0.269567,-0.619225 -6.5e-5,-0.02582 -0.173558,-0.08773 -0.385537,-0.137588 -0.707793,-0.166458 -0.684868,-0.157 -0.688561,-0.284114 -0.0018,-0.06308 -0.02297,-0.166248 -0.04698,-0.229269 -0.11499,-0.301878 -0.504042,0.03087 -0.504042,0.431103 0,0.251763 0.211992,0.174011 0.266572,-0.09777 0.02633,-0.131115 0.108428,-0.155846 0.108428,-0.03266 0,0.09701 -0.127042,0.376413 -0.171153,0.376413 -0.05469,0 -0.13273,0.296116 -0.08945,0.3394 0.02914,0.02914 0.943645,0.247673 1.177267,0.281324 0.01146,0.0017 0.04021,-0.01077 0.06389,-0.02761 z m -2.613958,-0.273704 c -0.0068,-0.04604 -0.03348,-0.09064 -0.05921,-0.0991 -0.05481,-0.01802 -0.10364,0.135927 -0.07051,0.222273 0.03409,0.08883 0.145482,-0.01694 0.129713,-0.123173 z m 0.02478,-0.343651 c 0.05392,-0.140527 0.02772,-0.267425 -0.05523,-0.267425 -0.09185,0 -0.14609,0.126763 -0.106976,0.25 0.0316,0.09957 0.126763,0.109795 0.162209,0.01742 z M 35.6866,14.403365 c 0,-0.016 -0.0261,-0.06478 -0.05799,-0.108395 -0.04927,-0.06738 -0.06807,-0.07095 -0.125,-0.0237 -0.07923,0.06575 -0.08958,0.279743 -0.01493,0.308588 0.04914,0.01899 0.197917,-0.113683 0.197917,-0.176498 z m 0.02177,-0.394769 c 0.07449,-0.113679 0.04488,-0.316913 -0.04616,-0.316913 -0.104247,0 -0.191001,0.184347 -0.144415,0.306876 0.05178,0.13619 0.106047,0.139048 0.190579,0.01004 z m 6.457394,-1.113691 c 0.229166,-0.04618 0.632291,-0.140989 0.895833,-0.210694 0.263541,-0.0697 0.535416,-0.14134 0.604167,-0.159191 0.123748,-0.03213 0.33185,-0.115507 0.59375,-0.237887 0.122791,-0.05738 0.135416,-0.08044 0.135416,-0.247338 0,-0.117223 -0.02069,-0.191998 -0.05696,-0.205919 -0.03133,-0.01202 -0.223518,0.02569 -0.427084,0.08381 -0.771212,0.220176 -1.519664,0.340415 -2.380535,0.382433 -0.44257,0.0216 -0.59375,0.04269 -0.59375,0.08282 0,0.02961 0.01825,0.06511 0.04055,0.0789 0.07747,0.04788 0.189393,0.339033 0.206352,0.536793 0.0042,0.04854 0.471606,-8.21e-4 0.982263,-0.103716 z m -1.428149,-0.110091 c 0.118644,-0.103125 0.127936,-0.209244 0.03192,-0.364595 -0.07726,-0.125001 -0.11198,-0.145202 -0.249599,-0.145202 -0.08792,0 -0.186746,-0.01032 -0.219605,-0.02293 -0.120348,-0.04618 -0.289707,0.375195 -0.205152,0.510434 0.08646,0.138286 0.492762,0.152383 0.642434,0.02229 z m -0.832909,-0.384274 0.113944,-0.206609 -0.0892,-0.04774 c -0.07582,-0.04058 -0.100743,-0.03293 -0.166152,0.05096 -0.09308,0.119382 -0.135885,0.263787 -0.103338,0.348604 0.04393,0.114469 0.129547,0.06367 0.244745,-0.145217 z m 2.550115,-0.271926 c 0.604155,-0.08971 1.388197,-0.269779 1.700525,-0.390558 0.13799,-0.05336 0.137146,-0.03618 0.05237,-1.067206 -0.03392,-0.4125 -0.06192,-0.754687 -0.06223,-0.760417 -2.93e-4,-0.0057 -0.024,-0.01051 -0.05264,-0.01062 -0.07812,-3.13e-4 -0.306774,-0.195926 -0.271089,-0.231914 0.01705,-0.01719 0.0654,-1.21e-4 0.107447,0.03793 0.09802,0.08871 0.326753,0.08911 0.415129,7.36e-4 0.100842,-0.10084 0.0894,-0.451845 -0.02248,-0.689868 -0.05001,-0.106399 -0.106909,-0.203325 -0.126432,-0.215392 -0.09395,-0.05806 -0.259177,-0.05472 -0.347332,0.007 -0.07774,0.05445 -0.208732,0.06821 -0.660485,0.06939 l -0.563508,0.0015 0.01235,0.508742 c 0.01945,0.800995 -0.0042,0.822034 -0.896477,0.796956 -0.344258,-0.0097 -0.520536,-0.03178 -0.567953,-0.07122 -0.05718,-0.04756 -0.06886,-0.145771 -0.0694,-0.583333 -3.33e-4,-0.289382 -0.01751,-0.552806 -0.03813,-0.585387 -0.05278,-0.0834 -0.611056,-0.07745 -0.775889,0.0083 -0.240592,0.125115 -0.477008,0.492644 -0.477008,0.741549 0,0.275028 0.325663,0.621916 0.583863,0.621916 0.11439,0 0.210271,0.04563 0.184272,0.0877 -0.01268,0.02051 -0.08392,0.0373 -0.158315,0.0373 h -0.135262 l -0.09202,0.46875 c -0.173737,0.884989 -0.214688,1.129652 -0.192753,1.151588 0.125746,0.125746 1.7569,0.17002 2.453443,0.06659 z m -1.879143,-0.35354 c -0.11017,-0.04443 -0.158218,-0.178113 -0.101862,-0.283413 0.02301,-0.04299 0.03107,-0.119319 0.01792,-0.169611 -0.03198,-0.122285 0.08565,-0.246737 0.265019,-0.280387 0.208594,-0.03913 0.213016,0.0074 0.0092,0.0963 l -0.17816,0.07769 0.0951,0.0886 0.0951,0.0886 -0.108174,0.07088 c -0.0595,0.03898 -0.108174,0.09731 -0.108174,0.129617 0,0.07071 0.182475,0.147318 0.270471,0.11355 0.03997,-0.01534 0.06286,2.5e-4 0.06286,0.04284 0,0.07451 -0.164884,0.0876 -0.319252,0.02535 z M 44.01993,9.462517 c 0,-0.03437 0.02812,-0.0625 0.0625,-0.0625 0.04327,0 0.0625,-0.04349 0.0625,-0.141376 0,-0.144845 -0.07142,-0.209905 -0.183285,-0.166976 -0.09821,0.03769 -0.116591,-0.05932 -0.02095,-0.110511 0.146394,-0.07835 0.274031,0.0071 0.307631,0.205997 0.0388,0.229628 -0.0019,0.337866 -0.127043,0.337866 -0.06232,0 -0.101359,-0.02407 -0.101359,-0.0625 z m -1.621839,0.473261 c 0.03316,-0.06197 0.03872,-0.233955 0.01817,-0.562742 -0.02869,-0.459145 -0.03273,-0.474292 -0.133301,-0.499533 -0.109468,-0.02747 -0.881249,0.0174 -0.94169,0.05476 -0.05045,0.03118 -0.02112,1.027644 0.03135,1.064869 0.02373,0.01684 0.25342,0.0309 0.510427,0.03125 0.435285,5.94e-4 0.470554,-0.0055 0.515043,-0.0886 z M 39.712738,9.743767 c 5.86e-4,-0.232163 0.103603,-0.477404 0.279775,-0.666043 0.06924,-0.07414 0.112301,-0.148378 0.09569,-0.164984 C 40.071594,8.89613 39.96038,8.88179 39.841052,8.88087 l -0.21696,-0.0017 -0.03076,0.479167 c -0.03277,0.510527 -0.02489,0.583333 0.0631,0.583333 0.03871,0 0.05595,-0.06059 0.0563,-0.197916 z M 43.841055,8.624189 C 43.869885,8.537599 43.580637,8.213489 43.352128,8.07634 42.952636,7.83657 42.359682,7.7287199 41.903281,7.8128151 41.467615,7.8930901 41.050792,8.118894 40.850095,8.383355 c -0.168714,0.222317 -0.145914,0.243151 0.294833,0.269423 0.724055,0.04316 2.67914,0.02243 2.696127,-0.028589 z"
       id="path342"
       inkscape:label="outline"
       sodipodi:nodetypes="cssssssssssscccscssssccsssssssssssscssscssssssscsscscscsscsssssssscccccscssssssscsscsscsssscsssscssssscscssssscsssssscscssscsssscaasssssssscscsssscscssscsccsssccssscsssssscsssscsscccccssssssscssssscscsccssssssssssccsccsscccssssscsscsscccsscccsssccssssscssssscssccccsssssssccssssccssccssssscccscscscsssscssccsssscccccsssssssssssssssssssssscssccssccssssss" /></g></svg>
