<?xml version="1.0" encoding="UTF-8" standalone="no"?>
<!-- Created with Inkscape (http://www.inkscape.org/) -->

<svg
   width="14in"
   height="8.5in"
   viewBox="0 0 56 34"
   version="1.1"
   id="svg658"
   xml:space="preserve"
   inkscape:version="1.2.2 (b0a8486541, 2022-12-01)"
   sodipodi:docname="dilbert.svg"
   xmlns:inkscape="http://www.inkscape.org/namespaces/inkscape"
   xmlns:sodipodi="http://sodipodi.sourceforge.net/DTD/sodipodi-0.dtd"
   xmlns="http://www.w3.org/2000/svg"
   xmlns:svg="http://www.w3.org/2000/svg"><sodipodi:namedview
     id="namedview660"
     pagecolor="#ffffff"
     bordercolor="#000000"
     borderopacity="0.25"
     inkscape:showpageshadow="2"
     inkscape:pageopacity="0.0"
     inkscape:pagecheckerboard="0"
     inkscape:deskcolor="#d1d1d1"
     inkscape:document-units="in"
     showgrid="true"
     inkscape:zoom="0.64693624"
     inkscape:cx="1105.9823"
     inkscape:cy="842.43233"
     inkscape:window-width="3790"
     inkscape:window-height="2111"
     inkscape:window-x="50"
     inkscape:window-y="0"
     inkscape:window-maximized="1"
     inkscape:current-layer="layer1"><inkscape:grid
       type="xygrid"
       id="grid779"
       units="in"
       spacingx="0.2"
       originx="0"
       originy="0"
       spacingy="0.2" /></sodipodi:namedview><defs
     id="defs655" /><g
     inkscape:label="Layer 1"
     inkscape:groupmode="layer"
     id="layer1"><g
       id="g691"><path
         style="fill:#fce6bd;stroke-width:1"
         d="m 41.9526,8.1160391 c -0.01065,-0.010655 -0.243467,-0.031807 -0.517361,-0.047006 -0.273894,-0.015199 -0.503686,-0.032491 -0.51065,-0.038428 -0.007,-0.00594 0.02546,-0.3457208 0.07205,-0.7550771 0.328231,-2.8838335 0.324218,-3.9701654 -0.0141,-3.8160181 -0.138195,0.062966 -0.534868,-0.0018 -0.672079,-0.1097267 l -0.103261,-0.081225 0.126667,-0.1065827 c 0.227288,-0.1912507 0.678138,-0.1850389 1.146673,0.015799 0.25167,0.1078782 0.280194,0.1053822 0.484152,-0.042364 0.226173,-0.1638387 0.473132,-0.1717243 0.652456,-0.020833 0.15923,0.1339829 0.234728,0.1311581 0.555941,-0.0208 0.361026,-0.1707934 0.604961,-0.1708035 0.799458,-3.28e-5 0.156523,0.1374285 0.28063,0.1587775 0.360882,0.062079 0.172734,-0.2081314 0.670855,-0.2185648 0.963601,-0.020183 0.217501,0.1473909 0.242082,0.1490179 0.582705,0.038569 0.38528,-0.1249292 0.826283,-0.1014667 0.979882,0.052132 0.150205,0.1502052 0.10861,0.2168835 -0.187046,0.2998402 -0.159349,0.044711 -0.259272,0.096732 -0.27272,0.141981 -0.02706,0.091044 9.04e-4,2.6566279 0.04024,3.6919954 L 46.47,8.1474054 46.349455,8.1201464 c -0.0663,-0.014992 -0.301053,-0.03904 -0.521675,-0.05344 l -0.401131,-0.026182 -0.02509,-0.211808 C 45.302979,6.9963927 44.442761,6.7568152 43.978751,7.4324548 l -0.132462,0.1928766 -0.142025,-0.19097 C 43.203259,6.7607002 42.451793,6.9900431 42.18811,7.8970823 42.12432,8.1165181 42.035572,8.1990227 41.952589,8.1160398 Z"
         id="path645" /><path
         style="fill:#fce6bd;stroke-width:1"
         d="m 40.116028,9.7499941 c 0.05869,-0.070837 0.133722,-0.6362742 0.133722,-1.0076538 0,-0.3014862 -7.63e-4,-0.3035612 -0.104167,-0.2837942 -0.05729,0.010952 -0.104167,0.03421 -0.104167,0.051683 0,0.017474 -0.03731,0.2449754 -0.0829,0.5055591 -0.102232,0.584265 -0.103738,0.6871809 -0.01085,0.7412846 0.09587,0.055839 0.116972,0.054952 0.168362,-0.00708 z"
         id="path643" /><path
         style="fill:#fce6bd;stroke-width:1"
         d="m 39.989591,10.084804 c -0.44349,-0.3843128 -0.219537,-2.0452424 0.258903,-1.9201278 0.21272,0.055627 0.215793,0.091252 0.09285,1.0763308 -0.124145,0.994683 -0.138338,1.028731 -0.35175,0.843797 z"
         id="path641" /><path
         style="fill:#fce6bd;stroke-width:1"
         d="m 46.883083,10.168744 c -0.0309,-0.0309 -0.04841,-0.1701845 -0.04585,-0.3645837 0.0026,-0.1959891 0.01506,-0.2753962 0.03308,-0.2106354 0.03225,0.1158929 0.145044,0.15705 0.232193,0.084723 0.0898,-0.074527 0.06723,-0.8727791 -0.02635,-0.931752 -0.125013,-0.078786 -0.20051,0.036991 -0.209385,0.3210995 -0.0065,0.2065421 -0.01242,0.1796988 -0.03125,-0.1405183 -0.03186,-0.5419088 0.110759,-0.71859 0.36157,-0.4479167 0.371616,0.4010438 0.06222,2.0658116 -0.314011,1.6895836 z"
         id="path639" /><path
         style="fill:#fce6bd;stroke-width:1"
         d="m 44.258801,11.978757 c 0.887516,-0.394888 1.157135,-1.838231 0.405533,-2.1709225 -0.326961,-0.1447275 -0.424825,0.048979 -0.163521,0.3236655 0.191679,0.201497 0.248937,0.321077 0.248937,0.519894 0,0.194733 -0.11897,0.567651 -0.18976,0.594816 -0.03313,0.01271 -0.06024,0.04597 -0.06024,0.07389 0,0.278466 -0.83539,0.503354 -1.240709,0.334001 -0.564087,-0.23569 -0.654257,-1.086783 -0.168335,-1.588866 0.148832,-0.1537767 0.134888,-0.263158 -0.03355,-0.263158 -0.471353,0 -0.783834,1.107925 -0.483638,1.714778 0.255937,0.517383 1.063271,0.738657 1.685282,0.461902 z"
         id="path637" /><path
         style="fill:#fce6bd;stroke-width:1"
         d="m 42.541416,14.717885 c -0.550543,-0.02692 -2.223718,-0.264728 -2.331578,-0.33139 -0.03027,-0.01871 -0.0317,-0.09318 -0.0045,-0.236421 0.02181,-0.11501 0.07884,-0.751297 0.126738,-1.41397 0.11283,-1.561137 0.217261,-2.492368 0.420143,-3.746527 0.04449,-0.275 0.08089,-0.5140625 0.08089,-0.53125 4e-6,-0.017188 0.287922,-0.03125 0.639816,-0.03125 h 0.639808 l 0.02458,0.2631667 c 0.093,0.9958758 0.797987,1.3487293 1.465461,0.7334741 l 0.180693,-0.166557 0.09362,0.13148 c 0.245532,0.3448174 0.868559,0.380597 1.195101,0.068633 0.152538,-0.1457283 0.238288,-0.3450459 0.317728,-0.7385304 0.05108,-0.2529867 0.06199,-0.2706617 0.165608,-0.2682292 0.06101,0.00143 0.289054,0.00612 0.506763,0.010417 l 0.395833,0.00781 -1.25e-4,1.46875 c -8.3e-5,0.9043718 0.02357,1.7809588 0.06154,2.2812508 0.06317,0.832229 0.145287,2.345776 0.128299,2.364743 -0.120618,0.134669 -2.504856,0.212703 -4.106375,0.134397 z"
         id="path635" /><path
         style="fill:#fce6bd;stroke-width:1"
         d="m 35.853916,25.295396 c -0.239694,-0.131774 -0.5625,-0.545439 -0.5625,-0.720826 0,-0.09392 0.02382,-0.08201 0.211724,0.105897 0.16332,0.16332 0.173223,0.167191 0.25,0.09771 0.10779,-0.09755 0.104921,-0.111937 -0.08962,-0.449357 -0.09326,-0.161752 -0.172945,-0.313628 -0.177083,-0.337502 -0.0041,-0.02387 -0.01951,-0.05278 -0.03417,-0.06424 -0.01465,-0.01146 -0.143782,-0.236458 -0.286955,-0.5 -0.143174,-0.263542 -0.293028,-0.526042 -0.33301,-0.583333 -0.03998,-0.05729 -0.233469,-0.369706 -0.429969,-0.694254 -0.1965,-0.324547 -0.423508,-0.693628 -0.504461,-0.820178 -0.537614,-0.840426 -0.491357,-0.957214 0.831036,-2.098156 0.160417,-0.138405 0.385417,-0.33803 0.5,-0.443611 0.256295,-0.236157 0.228604,-0.237841 0.41019,0.02495 0.244224,0.35344 0.291877,0.416509 0.415702,0.550178 0.218839,0.236239 0.250773,0.337207 0.13139,0.415429 -0.05671,0.03716 -0.103115,0.06054 -0.103115,0.05195 0,-0.0086 -0.107813,0.08445 -0.239583,0.206747 -0.131771,0.122301 -0.258693,0.222647 -0.28205,0.222991 -0.02335,3.33e-4 -0.103043,0.110817 -0.177083,0.245495 -0.25778,0.468902 -0.187739,0.785678 0.350469,1.585081 0.561675,0.834257 0.530964,0.76781 0.479282,1.036972 C 36.12079,23.613379 36.000249,24.667632 36,25 c -2.5e-4,0.356523 -0.0077,0.371499 -0.146092,0.295402 z"
         id="path633" /><path
         style="fill:#fce6bd;stroke-width:1"
         d="m 50.050013,25.849938 c -0.04049,-0.02569 -0.0583,-0.261408 -0.07158,-0.947278 -0.0097,-0.502196 -0.03367,-1.011531 -0.05321,-1.131855 l -0.03553,-0.218772 0.261512,-0.390005 c 0.997217,-1.487197 1.004521,-1.70557 0.08973,-2.682993 -0.338974,-0.362182 -0.335698,-0.310646 -0.03838,-0.603771 0.133505,-0.131623 0.341871,-0.377929 0.463035,-0.547348 l 0.220297,-0.308034 0.504851,0.520991 c 1.36645,1.410138 1.377907,1.832067 0.09365,3.448704 -0.67468,0.849292 -1.234628,1.75462 -1.234628,1.996156 0,0.269649 0.223507,0.179509 0.478038,-0.192792 l 0.207204,-0.303078 0.03269,0.187357 c 0.01798,0.103046 0.02286,0.234232 0.01084,0.291524 -0.01201,0.05729 -0.03003,0.147418 -0.04004,0.20028 -0.07112,0.375715 -0.659163,0.826385 -0.888471,0.680914 z"
         id="path631" /><path
         style="fill:#e8292b;stroke-width:1"
         d="m 43.43725,16.44304 c -0.271144,-0.06745 -0.4375,-0.243336 -0.4375,-0.462567 0,-0.114979 0.08678,-0.103584 0.458333,0.06019 0.498588,0.219763 0.67224,0.314168 0.638955,0.347363 -0.04224,0.04213 -0.543556,0.08393 -0.659788,0.05502 z"
         id="path559" /><path
         style="fill:#e8292b;stroke-width:1"
         d="m 40.9728,20.791657 c -0.121575,-0.13001 -0.195181,-0.241603 -0.385602,-0.584601 -0.108994,-0.196326 -0.108715,-0.211895 0.0063,-0.351362 0.377398,-0.45763 1.016169,-1.022469 1.391845,-1.230753 0.20745,-0.115015 0.229271,-0.09253 0.137106,0.141297 -0.04643,0.117791 -0.104593,0.309978 -0.129253,0.427083 -0.02466,0.117106 -0.06849,0.259795 -0.0974,0.317086 -0.02891,0.05729 -0.07137,0.151042 -0.09437,0.208334 -0.06521,0.162479 -0.236778,0.51854 -0.261006,0.541666 -0.012,0.01146 -0.08505,0.142709 -0.162322,0.291667 -0.226276,0.436188 -0.223171,0.434352 -0.405302,0.239583 z"
         id="path557" /><path
         style="fill:#e8292b;stroke-width:1"
         d="m 42.670577,20.770827 c -0.268262,-0.268723 -0.388327,-0.5602 -0.276838,-0.672069 0.101385,-0.101729 0.253927,-0.01604 0.60255,0.338472 l 0.338298,0.344014 -0.126409,0.114583 c -0.182549,0.16547 -0.2673,0.145765 -0.537601,-0.125 z"
         id="path555" /><path
         style="fill:#010101;stroke-width:1"
         d="m 39.933201,9.7121924 c -0.05842,-0.094528 0.08103,-1.1468196 0.162818,-1.2286071 0.168278,-0.1682779 0.194147,0.4843059 0.0469,1.183075 -0.02117,0.1004642 -0.157477,0.1300584 -0.209717,0.045532 z"
         id="path673" /><path
         style="fill:#010101;stroke-width:1"
         d="M 46.91737,9.6573933 C 46.82224,9.542762 46.91257,8.739577 47.020583,8.739577 c 0.0785,0 0.08333,0.027778 0.08333,0.4785958 0,0.49938 -0.04625,0.6082696 -0.186546,0.4392205 z"
         id="path671" /><path
         style="fill:#010101;stroke-width:1"
         d="m 43.207813,12.013146 c -0.818933,-0.249108 -1.026145,-1.490237 -0.348184,-2.0854957 0.241165,-0.2117454 0.426057,-0.081964 0.202178,0.1419157 -0.436905,0.436904 -0.396539,1.248293 0.07665,1.540846 1.017628,0.629151 2.194506,-0.786525 1.301481,-1.565562 -0.10587,-0.092356 -0.119845,-0.1244013 -0.08177,-0.1875001 0.184322,-0.3054766 0.735135,0.2825261 0.731276,0.7806521 -0.0076,0.98031 -0.939847,1.661623 -1.881635,1.375144 z"
         id="path669" /><path
         style="fill:#010101;stroke-width:1"
         d="m 46.035269,21.801431 c -0.50428,-0.26643 -0.639686,-0.667595 -0.639686,-1.895187 V 18.94791 l 0.311675,-0.0625 0.311675,-0.0625 8.25e-4,-0.288025 c 5.5e-4,-0.191905 0.01812,-0.293848 0.05265,-0.305471 0.06343,-0.02135 0.135447,0.156071 0.136311,0.335792 10e-4,0.210269 0.03866,0.23816 0.282483,0.209283 0.119284,-0.01413 0.216879,-0.03763 0.216879,-0.05223 0,-0.139822 0.09606,-0.740637 0.122727,-0.767566 0.06478,-0.06543 0.09807,0.06756 0.09107,0.363892 -0.0089,0.378671 0.0056,0.398423 0.264847,0.358798 0.336885,-0.0515 0.334877,-0.0558 0.379199,0.81219 0.06073,1.189233 -0.21603,2.146195 -0.676304,2.33851 -0.204338,0.08538 -0.669788,0.07086 -0.854352,-0.02666 z m 0.686514,-0.222855 c 0.426955,-0.178393 0.704062,-1.210535 0.624799,-2.327195 l -0.02608,-0.367387 -0.129127,0.02132 c -0.467652,0.07722 -1.113392,0.146763 -1.362743,0.146763 H 45.53538 l 0.02726,0.739583 c 0.0542,1.470336 0.451388,2.082634 1.15914,1.786916 z"
         id="path667" /><path
         style="fill:#010101;stroke-width:1"
         d="m 44.145583,49.548739 c -0.929558,-0.11037 -1.107015,-0.313654 -0.95977,-1.099445 0.125828,-0.671505 0.32541,-1.214238 0.540531,-1.469896 l 0.105577,-0.125471 -0.129627,-0.02593 c -0.07129,-0.01426 -0.228113,-0.02593 -0.348484,-0.02593 -0.15278,0 -0.236122,-0.02081 -0.276042,-0.06893 -0.0768,-0.09256 -0.07765,-6.149932 -0.0012,-8.389408 0.02934,-0.859375 0.07108,-2.575 0.09276,-3.8125 0.02167,-1.2375 0.05738,-2.49375 0.07934,-2.791667 0.120732,-1.637339 0.115957,-1.702592 -0.114078,-1.559005 -0.06723,0.04196 -0.07147,0.175483 -0.05993,1.885416 0.0069,1.02865 -0.0072,2.115899 -0.03204,2.465256 -0.09293,1.306425 -0.123596,2.140119 -0.144055,3.916666 -0.01161,1.008334 -0.04471,2.498959 -0.07355,3.3125 -0.0607,1.712354 -0.05997,1.579629 -0.0182,3.3125 0.04235,1.757 0.06784,1.696613 -0.726955,1.72205 l -0.440707,0.01411 0.175318,0.349325 c 0.221402,0.44115 0.289514,0.779316 0.289101,1.43535 -5.59e-4,0.883125 -0.112239,0.932195 -2.124672,0.933554 -1.26237,8.33e-4 -1.401762,-0.02245 -1.51155,-0.252679 L 38.3966,49.12625 38.166915,49.15419 c -0.126327,0.01537 -0.445311,0.04514 -0.708852,0.06616 -0.263542,0.02102 -0.676042,0.05845 -0.916667,0.08317 -1.372458,0.141017 -2.57772,0.115488 -3.310001,-0.07011 -1.301778,-0.329938 -0.592199,-1.352071 1.324146,-1.907404 0.673928,-0.1953 2.742843,-0.572584 3.694188,-0.673667 0.44825,-0.04763 0.469594,-0.08185 0.08806,-0.141204 -0.519987,-0.08089 -0.519462,-0.07995 -0.489023,-0.875738 0.08442,-2.206871 0.110969,-3.53064 0.111577,-5.5625 4.25e-4,-1.425908 0.02376,-2.748157 0.06176,-3.5 0.03359,-0.664583 0.08044,-2.173958 0.104106,-3.354166 0.02367,-1.180209 0.06009,-2.342709 0.08093,-2.583334 0.04336,-0.500463 0.05375,-1.656123 0.0169,-1.878891 -0.02147,-0.129811 -0.05328,-0.163811 -0.239125,-0.255639 -0.823317,-0.406802 -1.74202,-1.602054 -1.894759,-2.465123 -0.02656,-0.150099 -0.04262,-0.165688 -0.216004,-0.209712 -0.806391,-0.204751 -1.383799,-1.345834 -0.864921,-1.70927 0.10198,-0.07143 0.0065,-0.25609 -0.687659,-1.329719 -1.421347,-2.198392 -1.447688,-2.363371 -0.521781,-3.267985 0.380067,-0.371327 1.259686,-1.111354 1.442784,-1.213821 0.06207,-0.03474 0.06172,-0.05014 -0.0043,-0.188581 -0.170429,-0.357394 -0.09607,-0.463099 0.761444,-1.08237 0.971157,-0.701343 1.91124,-1.183541 2.964448,-1.520556 0.144254,-0.04616 0.149733,-0.05449 0.108222,-0.164462 -0.07917,-0.209735 -0.02829,-0.302013 0.433823,-0.786787 0.114688,-0.120313 0.235145,-0.21875 0.267682,-0.21875 0.04391,0 0.05916,-0.0589 0.05916,-0.228483 0,-0.474084 0.256241,-3.000997 0.357245,-3.522969 0.01825,-0.09432 0.0058,-0.106729 -0.11632,-0.115998 -0.763083,-0.05792 -0.960612,-1.7330337 -0.29374,-2.4910162 0.168959,-0.1920429 0.344022,-0.2268729 0.579258,-0.1152462 0.07876,0.037375 0.150108,0.060812 0.158548,0.052083 0.04898,-0.050658 0.439794,-3.4979313 0.439926,-3.8804546 l 1.13e-4,-0.23957 h -0.137079 c -0.597848,0 -1.050769,-0.3477599 -0.860469,-0.6606821 0.255687,-0.420443 0.947626,-0.5340531 1.566394,-0.2571874 0.159912,0.071552 0.160766,0.071432 0.335218,-0.047362 0.285215,-0.1942183 0.970936,-0.1560443 0.970936,0.054052 0,0.020291 0.103888,-0.021739 0.230862,-0.093398 0.32895,-0.1856479 0.671432,-0.2085859 0.95263,-0.063803 l 0.204325,0.1052026 0.159745,-0.081496 c 0.297872,-0.1519626 0.612167,-0.1525918 0.934251,-0.00187 l 0.280496,0.1312599 0.224575,-0.084024 c 0.454343,-0.1699915 1.084372,-0.083586 1.344047,0.1843304 0.318211,0.3283108 0.201148,0.7224935 -0.254519,0.8570344 l -0.180579,0.053318 0.004,1.0252299 c 0.0022,0.5638765 0.01871,1.5127298 0.03669,2.1085632 l 0.03271,1.0833333 h 0.247791 c 0.420571,0 0.594231,0.2658104 0.644653,0.9867292 0.05853,0.836802 -0.23191,1.4507706 -0.686288,1.4507706 h -0.188384 l 0.02861,0.697917 c 0.01574,0.383854 0.0457,0.913541 0.0666,1.177083 0.02089,0.263542 0.03907,0.762487 0.04039,1.108768 0.0034,0.880051 0.02545,1.01459 0.171329,1.043767 0.227289,0.04546 0.844965,0.814085 0.844965,1.051463 0,0.103417 0.05125,0.140107 0.586806,0.42014 0.322743,0.168755 0.699305,0.375479 0.836805,0.459387 0.1375,0.08391 0.38503,0.230988 0.550066,0.326846 0.366078,0.212628 1.168565,0.842591 1.270768,0.997569 0.09887,0.149926 0.09441,0.34155 -0.01311,0.562861 l -0.08811,0.181363 0.496952,0.496835 c 1.645522,1.645133 1.660457,2.340541 0.09227,4.296106 -0.51981,0.648216 -0.522823,0.653901 -0.41752,0.787772 0.115914,0.147361 0.185832,0.527641 0.158037,0.85955 -0.06759,0.807092 -0.936148,1.546516 -1.48389,1.263268 l -0.117907,-0.06097 -0.115688,0.317195 c -0.242253,0.664217 -0.800956,1.298721 -1.508567,1.713242 -0.445105,0.260743 -0.426487,0.216661 -0.425788,1.008174 2.92e-4,0.332292 -0.02804,1.372917 -0.06296,2.3125 -0.03492,0.939584 -0.08404,2.364584 -0.109147,3.166667 -0.02511,0.802083 -0.0605,1.927083 -0.07864,2.5 -0.01814,0.572917 -0.01993,2.363542 -0.004,3.979167 0.01596,1.615625 0.0184,3.487629 0.0054,4.160008 l -0.02357,1.222504 -0.112661,0.09691 c -0.110521,0.09506 -0.275073,0.126484 -0.819131,0.156396 l -0.182137,0.01002 0.08163,0.100371 c 0.07789,0.09577 0.134894,0.105746 1.244637,0.217779 3.174933,0.320525 4.845792,0.858804 4.849579,1.562321 0.0039,0.715962 -1.829693,0.886262 -5.288351,0.491191 -0.5042,-0.05759 -0.647168,-0.06233 -0.660655,-0.02187 -0.04102,0.123062 -0.208414,0.261883 -0.362568,0.300675 -0.231211,0.05818 -1.719943,0.08179 -2.125,0.03369 z m 1.617008,-2.326958 c 0.05588,-0.02125 0.11327,-0.08513 0.127534,-0.141962 0.01427,-0.05683 0.03754,-0.133579 0.05173,-0.170546 0.02332,-0.06076 -0.05969,-0.06613 -0.864405,-0.05595 l -0.890198,0.01126 -0.01291,0.111779 c -0.01493,0.129217 0.0657,0.186584 0.337769,0.240325 0.244246,0.04825 1.127523,0.05185 1.250486,0.0051 z m -4.783675,-0.185775 c 0.262926,-0.14095 0.251025,-0.262412 -0.02879,-0.293783 -0.299678,-0.0336 -1.587371,-0.108713 -1.602601,-0.09348 -0.05232,0.05232 0.09073,0.329159 0.19901,0.385155 0.315733,0.16327 1.129512,0.16447 1.432376,0.0021 z m 0.636432,-18.46575 c 0.480121,-0.07129 0.644177,-0.118934 1.062165,-0.308459 l 0.277967,-0.126036 -0.0788,-0.135592 c -0.188399,-0.324167 -0.267636,-0.86742 -0.317567,-2.177259 -0.03476,-0.911934 0.07758,-2.049108 0.312526,-3.163379 0.117367,-0.556638 0.346814,-0.570607 0.25931,-0.01579 -0.339301,2.151348 -0.240237,4.79858 0.199458,5.329983 0.318963,0.38549 1.614557,0.530256 3.127935,0.349509 1.647355,-0.196748 2.846653,-1.247776 3.044162,-2.667806 0.04134,-0.297205 0.02657,-1.641927 -0.01944,-1.77002 -0.01235,-0.03438 -0.07063,-0.465625 -0.129527,-0.958333 -0.113358,-0.948361 -0.338317,-2.128083 -0.615765,-3.229167 -0.212977,-0.845222 -0.221367,-0.906533 -0.133969,-0.979066 0.158828,-0.131816 0.291072,0.07592 0.503909,0.791566 0.08519,0.286459 0.160833,0.528097 0.168085,0.536975 0.121072,0.148198 1.633753,-1.673939 1.590094,-1.915386 -0.02664,-0.147341 -1.254109,-1.053651 -2.053634,-1.516319 -0.114584,-0.06631 -0.385616,-0.238993 -0.602293,-0.383747 -0.455675,-0.304419 -0.431581,-0.299773 -0.742646,-0.143173 -0.131117,0.06601 -0.407145,0.189644 -0.613395,0.274745 -0.20625,0.0851 -0.532609,0.228823 -0.725243,0.319381 -0.729997,0.343175 -0.850654,0.328024 -1.005308,-0.12624 -0.11406,-0.33503 -0.122613,-0.340978 -0.256012,-0.178031 -0.05322,0.06501 -0.1646,0.16847 -0.247503,0.229905 -0.14937,0.110688 -0.150378,0.113481 -0.111485,0.308877 0.122009,0.61298 0.01708,2.388075 -0.173995,2.943438 -0.424107,1.23269 -1.429671,1.91958 -2.542815,1.73697 -0.700485,-0.114915 -1.082754,-0.45212 -1.564831,-1.380363 -0.271958,-0.523656 -0.3637,-0.663423 -0.489187,-0.745262 -0.279594,-0.182345 -0.179376,-0.560392 0.497967,-1.878436 0.575155,-1.119197 0.558947,-1.104406 0.835089,-0.762041 0.08708,0.107962 0.376367,0.422024 0.642866,0.697917 0.685893,0.710072 0.838316,0.89497 0.804333,0.975698 -0.209512,0.4977 -0.288182,1.088426 -0.144951,1.088426 0.303995,0 0.722009,-0.928021 0.832251,-1.847659 0.104891,-0.875003 0.103534,-0.939528 -0.02075,-0.986782 -0.309046,-0.117499 -0.455314,-0.3095 -0.507567,-0.666267 l -0.03119,-0.212938 -0.176423,0.268594 c -0.418835,0.637649 -0.488252,0.645312 -1.436477,0.158582 -0.396238,-0.203392 -0.902416,-0.447196 -1.124839,-0.541786 l -0.404405,-0.171983 -0.217539,0.08575 c -0.960195,0.378474 -2.769877,1.450822 -3.535303,2.094886 -0.161731,0.136087 -0.166516,0.113642 0.117231,0.549977 0.29661,0.456115 1.378511,1.753788 1.501199,1.800594 0.01461,0.0056 0.188796,-0.322552 0.387089,-0.729166 0.418179,-0.857503 0.749972,-1.385132 0.871025,-1.385132 0.102605,0 0.102575,0.06092 -8.3e-5,0.205116 -0.04457,0.0626 -0.211327,0.431117 -0.370565,0.818932 -0.159237,0.387816 -0.422292,0.997559 -0.584565,1.354985 -0.435116,0.958391 -0.94621,2.472026 -1.02318,3.030206 -0.303227,2.198974 -0.17285,2.931289 0.701282,3.939008 0.872845,1.006236 2.512219,1.471912 4.265336,1.211599 z m 8.695339,-2.684251 c 0.463069,-0.176059 0.76716,-0.766359 0.663021,-1.287053 -0.03561,-0.178055 -0.05384,-0.16714 -0.244792,0.146569 -0.232803,0.382469 -0.479166,0.504716 -0.479166,0.237766 0,-0.188123 0.788136,-1.427429 1.36543,-2.147072 1.161847,-1.448337 1.131473,-1.937083 -0.205461,-3.306063 -0.224388,-0.229767 -0.43306,-0.452059 -0.463714,-0.493982 -0.05113,-0.06993 -0.07077,-0.05315 -0.237699,0.203065 -0.100079,0.153607 -0.321379,0.420067 -0.491777,0.592132 l -0.309815,0.312845 0.247861,0.256016 c 0.982941,1.015282 0.981746,1.237451 -0.01478,2.746365 l -0.268805,0.407015 0.04626,0.337836 c 0.02544,0.185809 0.04872,0.699866 0.05172,1.142348 0.0052,0.767485 0.0094,0.806426 0.09104,0.846079 0.111713,0.05426 0.123343,0.05455 0.250679,0.0061 z M 36.123618,23.871803 c 0.04819,-0.370641 0.106192,-0.743481 0.128885,-0.828534 0.04032,-0.151137 0.03239,-0.16766 -0.34996,-0.729167 -0.692351,-1.016752 -0.782688,-1.335851 -0.505597,-1.785937 0.106422,-0.172866 0.66181,-0.676535 0.889756,-0.806901 0.04386,-0.02508 -0.02205,-0.132287 -0.273514,-0.444868 -0.182215,-0.2265 -0.373737,-0.482012 -0.425604,-0.567804 -0.102809,-0.170054 -0.15654,-0.168082 -0.317467,0.01165 -0.04558,0.0509 -0.279742,0.263069 -0.520367,0.47148 -1.307348,1.132324 -1.355559,1.219604 -1.027609,1.860355 0.103741,0.202689 0.820112,1.384863 1.052533,1.736915 0.07846,0.118845 0.27124,0.456345 0.428399,0.75 0.157159,0.293655 0.35378,0.646418 0.436937,0.783918 0.261849,0.432973 0.11717,0.633308 -0.194448,0.269251 -0.115799,-0.135284 -0.14913,-0.154921 -0.170119,-0.100223 -0.0647,0.168615 0.275421,0.665372 0.553487,0.808377 l 0.149986,0.07714 0.02854,-0.415877 c 0.0157,-0.228733 0.06797,-0.719129 0.116164,-1.089771 z m 14.022903,-1.532692 c 0.380235,-0.768414 0.381171,-0.783574 0.07093,-1.149244 -0.132348,-0.155993 -0.322128,-0.391436 -0.421734,-0.523207 -0.201553,-0.266636 -0.207833,-0.269736 -0.336052,-0.165911 l -0.09098,0.07367 0.146025,0.645078 c 0.118617,0.524003 0.276705,1.497679 0.276705,1.704247 0,0.109548 0.0626,0.0065 0.355105,-0.584635 z m -13.41341,-0.704958 c 0.129257,-0.354517 0.290232,-0.754286 0.357721,-0.888376 0.06749,-0.13409 0.116792,-0.247442 0.109563,-0.251895 -0.0072,-0.0045 -0.154333,-0.132411 -0.326895,-0.284353 l -0.31375,-0.276258 -0.426118,0.417865 c -0.449361,0.440658 -0.505101,0.540171 -0.439735,0.785065 0.04826,0.180816 0.730033,1.21294 0.773777,1.171411 0.01673,-0.01589 0.13618,-0.318943 0.265437,-0.673459 z m 6.473006,-0.710442 0.177203,-0.128365 -0.376284,-0.374499 c -0.340623,-0.339006 -0.389402,-0.373239 -0.514702,-0.361217 -0.276738,0.02655 -0.175204,0.405169 0.206133,0.768665 0.274798,0.261942 0.277156,0.262385 0.50765,0.09542 z m -1.678559,-0.623746 c 0.349766,-0.693668 0.404464,-0.822032 0.49624,-1.164555 0.03991,-0.148958 0.116554,-0.359469 0.170315,-0.467803 l 0.09775,-0.19697 -0.107194,0.04076 c -0.385769,0.14667 -1.023807,0.666914 -1.504114,1.226429 l -0.215951,0.251562 0.167781,0.322497 c 0.208893,0.401517 0.474889,0.693135 0.555799,0.609335 0.03008,-0.03115 0.182795,-0.310713 0.339376,-0.62125 z m 4.576358,-3.998886 c 0.229167,-0.111737 0.632292,-0.289441 0.895834,-0.394898 0.630309,-0.252221 0.628221,-0.249764 0.437656,-0.515016 -0.08418,-0.117178 -0.227849,-0.275174 -0.319256,-0.351101 l -0.166194,-0.13805 -0.289649,0.09443 c -0.300262,0.09789 -0.937436,0.180635 -1.39093,0.180635 -0.143666,0 -0.319619,0.01168 -0.391007,0.02596 l -0.129797,0.02596 0.16095,0.19279 c 0.24715,0.296046 0.409994,0.574286 0.507375,0.866915 0.10448,0.313962 0.06784,0.3133 0.685018,0.01238 z m -1.971593,0.09342 c 0.0493,-0.0493 -0.240294,-0.199763 -0.848013,-0.440609 -0.349358,-0.138454 -0.341879,-0.139413 -0.31275,0.04009 0.05888,0.362815 0.259368,0.483378 0.768685,0.462241 0.189564,-0.0079 0.365999,-0.03564 0.392078,-0.06172 z M 42.133926,15.93749 c 0.437384,-0.599839 0.537078,-0.761686 0.479988,-0.779235 -0.02842,-0.0087 -0.267289,-0.02605 -0.530831,-0.03847 -0.47104,-0.02221 -1.490885,-0.176552 -1.97603,-0.299049 l -0.246863,-0.06233 -0.178353,0.198919 c -0.22385,0.249663 -0.231271,0.223698 0.09664,0.338139 0.403897,0.140961 1.002917,0.418741 1.575441,0.730569 0.275,0.14978 0.503188,0.273163 0.507084,0.274186 0.0039,0.001 0.126712,-0.162203 0.272926,-0.362724 z m 3.324157,-1.200518 c 1.135278,-0.0856 1.231992,-0.101999 1.218696,-0.206647 -0.0058,-0.04533 -0.02878,-0.494915 -0.05117,-0.999081 -0.02238,-0.504167 -0.06885,-1.235417 -0.103258,-1.625 -0.0397,-0.449446 -0.06292,-1.210881 -0.06353,-2.0833337 l -9.71e-4,-1.375 -0.515833,-0.011442 -0.515834,-0.011442 -0.02851,0.1901167 c -0.149197,0.9949138 -0.97354,1.402762 -1.512847,0.7484892 L 43.762407,9.2151141 43.653044,9.358497 C 43.10563,10.076193 42.196311,9.6451662 42.161135,8.6513166 l -0.0075,-0.2127054 -0.649846,-0.02227 c -0.357415,-0.012248 -0.656811,-0.01569 -0.665325,-0.00765 -0.09524,0.08996 -0.430652,2.8570498 -0.527488,4.3517168 -0.03489,0.538542 -0.08154,1.091667 -0.103671,1.229167 -0.07265,0.45142 -0.107474,0.413287 0.469555,0.51411 0.930109,0.162516 1.380154,0.2121 2.17845,0.240014 0.434665,0.0152 0.798113,0.03455 0.807662,0.043 0.04115,0.03644 1.007304,0.0097 1.795138,-0.04973 z m 1.664933,-4.550113 C 47.32895,10.020104 47.455314,9.0277574 47.320315,8.6374678 47.251525,8.4385962 47.034163,8.3112449 46.892719,8.3869433 l -0.101303,0.054215 v 0.806925 c 0,0.9782817 0.0629,1.1563547 0.3316,0.9387757 z M 40.267164,9.9999937 c 0.228617,-1.7976905 0.228599,-1.7909567 0.0049,-1.8470942 -0.488776,-0.122675 -0.76806,1.4905825 -0.333309,1.9253325 0.16611,0.166111 0.301404,0.133876 0.32838,-0.078239 z m 2.986841,-0.7098438 c 0.504085,-0.3391716 0.57099,-1.4153225 0.112003,-1.8015346 -0.54916,-0.4620875 -1.08353,0.4571659 -0.84796,1.4587059 0.09907,0.4211966 0.406584,0.5644454 0.735957,0.3428287 z m 1.606048,-0.090331 c 0.345309,-0.3889246 0.353573,-1.5778859 0.01229,-1.76748 -0.619801,-0.3443171 -1.200927,1.0851454 -0.700026,1.7219371 0.17067,0.2169716 0.515276,0.239792 0.68774,0.045543 z M 42.180936,7.9780051 c 0.144195,-0.9017487 1.07937,-1.2070617 1.532815,-0.5004287 l 0.128854,0.2008016 0.114581,-0.1806758 c 0.459537,-0.7246146 1.261487,-0.5465525 1.425196,0.3164458 l 0.05114,0.2695963 0.439363,0.020453 c 0.241649,0.011249 0.475043,0.035355 0.518651,0.05357 0.07747,0.032357 0.07865,-0.00744 0.05119,-1.7342025 -0.03757,-2.3631979 -0.03883,-2.747854 -0.0091,-2.7776031 0.01389,-0.013891 0.141121,-0.065404 0.282732,-0.1144737 0.657368,-0.2277822 -0.08911,-0.6018396 -0.779126,-0.3904183 -0.277788,0.085114 -0.502254,0.099779 -0.542035,0.035413 -0.140238,-0.2269103 -0.72217,-0.2642528 -1.022349,-0.065604 -0.200417,0.1326301 -0.210225,0.1327377 -0.331509,0.00364 -0.201703,-0.2147026 -0.535096,-0.2143774 -0.959997,9.362e-4 -0.252544,0.127974 -0.263296,0.1278601 -0.436997,-0.00463 -0.07782,-0.059357 -0.212508,-0.1165618 -0.299303,-0.1271213 -0.156559,-0.019047 -0.179247,-0.00931 -0.485581,0.2083615 -0.107645,0.07649 -0.112661,0.076009 -0.390637,-0.037402 C 41.270391,3.0737051 41.087364,3.0339845 40.849061,3.020163 L 40.51089,3.000549 40.336814,3.1578171 c -0.09574,0.086497 -0.159024,0.1723219 -0.140624,0.1907211 0.07783,0.077831 0.566005,0.167981 0.762955,0.1408934 l 0.20179,-0.027753 0.05243,0.174981 c 0.07886,0.2632172 -0.133832,3.2280882 -0.298578,4.162059 -0.04953,0.280815 -0.108618,0.2499142 0.564115,0.2950284 0.315238,0.02114 0.582751,0.048029 0.594475,0.059752 0.04348,0.043476 0.08279,-0.020677 0.107545,-0.1754908 z"
         id="path665" /></g></g></svg>
